<svg xmlns="http://www.w3.org/2000/svg" width="1024" height="1024" viewBox="0 0 1024 1024"><path fill="#004cff" d="M488.198 0h50.123c3.924 1.63 17.342 2.087 21.995 2.435 29.533 2.208 59.093 7.901 87.663 15.622 142.516 39.608 261.112 138.602 325.554 271.746a515.2 515.2 0 0 1 43.258 134.563 456 456 0 0 1 4.424 29.02c.516 4.276 1.687 18.551 2.785 21.709v68.068c-1.27 3.354-1.577 11.382-2.007 15.318a2250 2250 0 0 1-3.772 31.474c-2.454 18.256-7.467 40.899-12.374 58.65-39.527 143.086-136.152 256.828-268.899 323.13a457 457 0 0 1-118.923 41.304l-15.413 3.015a717 717 0 0 1-39.088 5.107c-5.374.525-24.65 1.573-28.722 2.839h-51.589c-3.12-1.16-31.13-3.768-37.04-4.469a502 502 0 0 1-31.428-4.956 512 512 0 0 1-212.285-95.1 507.6 507.6 0 0 1-185.048-273.47 467 467 0 0 1-11.65-55.649c-1.032-3.411-.862-7.491-1.596-10.89C1.264 566.033 2.802 548.658 0 535.748v-47.461c.882-3.125 1.635-14.95 1.935-18.903.875-11.485 1.86-21.598 3.637-33.001a505 505 0 0 1 48.71-153.769 552.6 552.6 0 0 1 59.708-92.693A511.9 511.9 0 0 1 378.668 17.36c21.254-5.637 49.012-10.776 71.056-13.49a343 343 0 0 1 18.432-1.782c4.633-.321 16.024-.615 20.042-2.088M212.656 333.918c-.557 1.05-.613 1.01-1.517 1.813-3.102.3-8.716-4.556-11.646-6.635-1.604.625-1.722 1.107-2.572 3.1-2.155 5.048-4.055 10.307-6.064 15.427a442.4 442.4 0 0 0-29.934 161.37c.072 19.751.717 34.489 3.579 54.305a354.87 354.87 0 0 0 101.29 200.413 296.2 296.2 0 0 0 73.96 52.835c37.052 18.207 96.87 28.487 137.776 24.912 4.993-.963 15.671-1.18 21.918-2.036a313 313 0 0 0 53.78-12.542c84.533-27.832 148.169-83.087 188.211-162.497a281 281 0 0 0 5.14-11.792 281.9 281.9 0 0 1-67.44 205.066c-4.727 5.514-10.895 12.358-16.339 17.138-29.663 27.963-63.738 49.398-102.023 63.52-3.666 1.352-14.987 4.945-17.305 6.718 41.963-10.735 87.597-34.877 123.301-58.704a468.54 468.54 0 0 0 158.72-191.262c44.282-98.026 51.082-202.445 12.899-303.595a366.5 366.5 0 0 0-192.053-204.225c-11.998-5.325-26.35-9.823-38.978-13.28-51.048-13.978-103.957-14.672-155.808-4.685-15.229 2.933-30.83 7.62-45.861 11.594-62.325 20.427-118.442 56.367-160.213 107.254a354 354 0 0 0-20.725 28.23c-2.138 3.183-9.904 15.254-12.096 17.558"/><path fill="#004cff" d="M301.52 466.936c.329-12.354.891-22.504 3.141-34.763 7.526-40.99 32.075-80.117 66.582-103.79-.196 12.93-2.458 26.972-3.104 40.081-4.246 86.16 16.87 210.411 133.535 143.622-10.437-14.516-23.785-24.42-41.312-28.844 32.067-14.508 55.28-35.566 73.023-65.999 8.778 5.743 18.887 13.992 27.46 20.202 5.07 3.674 10.74 9.089 16.036 12.234 11.042-9.359 21.835-18.698 33.562-27.308 44.634-32.765 97.174-56.77 152.74-61.9 12.763-1.177 25.793-.797 38.543-.263 6.988 31.31 7.971 42.147 1.11 74.066 9.515-1.38 18.494-2.998 28.218-4.3-3.605 20.029-4.924 34.23-12.477 53.977-23.326 61.01-89.215 123.326-148.12 149.475 5.99-14.21 7.53-22.573 10.11-37.474a455 455 0 0 0 13.807-9.147 914 914 0 0 1-26.16-15.368l-.03.524c-2.576 49.013-22.9 96.49-59.678 129.553-1.22-3.801-1.99-8.045-2.916-11.948-6.448-27.194-15.442-53.891-20.84-81.326 12.959-8.77 21.933-15.303 30.85-28.758 2.95-4.453 5.526-9.171 8.487-13.575 1.577-2.879 3.31-5.902 4.686-8.867-3.72 3.063-6.873 5.898-10.408 9.142-.684.823-6.631 5.296-7.905 6.238-13.415 9.896-28.177 20.611-42.91 28.402.63 3.17 1.507 6.529 2.339 9.67 5.026 18.957 9.523 38.18 14.688 57.09-8.896 3.494-23.028 5.661-32.797 6.947-63.373 8.336-127.57-8.56-174.676-52.764-19.052-17.88-35.378-40.133-56.138-55.931-43.673-33.235-89.257-44.618-143.184-37.81 8-14.62 22.768-31.683 36.242-41.477 28.413-20.647 53.723-24.612 87.496-19.611m335.912 60.723c-6.656-26.206-4.407-43.463 4.968-68.01.778 5.382.709 11.948 1.213 17.498 4.346 47.698 35.172 77.23 81.043 86.75 4.026-3.511 10.24-9.979 14.094-13.919 25.367-25.944 44.864-54.182 57.344-88.424-10.866 1.79-21.921 5.087-32.845 6.86 2.158-5.984 5.214-12.374 7.475-18.825 7.459-21.274 7.864-36.872 6.377-58.711-48.447 2.374-112.77 33.926-150.864 63.917-60.1 47.317-128.286 131.216-215.642 101.72-41.005-13.844-64.495-64.626-69.814-104.317-.392-2.924-2.845-22.29-3.572-23.052-2.275 4.432-2.808 9.351-3.755 14.172-4.595 23.397-2.532 42.472.739 65.704-25.913-7.921-44.483-14.29-72.194-7.651-3.647.913-8.295 1.945-11.794 3.096l13.207 3.351c23.711 6.087 42.163 13.099 63.236 26.075 15.539 9.548 29.971 21.348 44.458 32.301 60.03 45.38 139.485 34.546 202.727 2.302 23.36-11.911 42.43-24.617 63.599-40.837"/><path fill="#fdfdfd" fill-opacity=".008" d="M334.193 509.022c-3.27-23.232-5.334-42.307-.739-65.704.947-4.82 1.48-9.74 3.755-14.172.727.762 3.18 20.128 3.572 23.052 5.32 39.69 28.81 90.473 69.814 104.317 87.356 29.496 155.542-54.403 215.642-101.72 38.093-29.99 102.417-61.543 150.864-63.917 1.487 21.84 1.082 37.437-6.377 58.711-2.261 6.451-5.317 12.841-7.475 18.825 10.924-1.773 21.979-5.07 32.845-6.86-12.48 34.242-31.977 62.48-57.344 88.424-3.854 3.94-10.068 10.408-14.094 13.918-45.871-9.519-76.697-39.05-81.043-86.749-.504-5.55-.435-12.116-1.213-17.498-9.375 24.547-11.624 41.804-4.968 68.01-21.168 16.22-40.24 28.926-63.599 40.837-63.242 32.244-142.696 43.078-202.727-2.302-14.487-10.953-28.92-22.753-44.458-32.3-21.073-12.977-39.525-19.99-63.236-26.076-1.917-2.85-2.264-3.097-1.413-6.447 27.71-6.64 46.281-.27 72.194 7.651"/><path fill="#004cff" d="M708.64 435.134c2.237-.155 4.117-.622 5.793.59.72 3.97-6.865 13.067 5.263 17.42 5.837 2.094 10.215-6.692 13.89-5.623 1.298 1.822 1.114 4.272 1.314 6.398.869 9.265-2.769 15.425-10.047 20.705a28 28 0 0 1-2.92 1.573 19.69 19.69 0 0 1-15.742.311c-18.935-7.725-18.612-34.636 2.45-41.374"/><path fill="#fdfdfd" fill-opacity=".02" d="M250.205 504.467c3.499-1.15 8.147-2.183 11.794-3.096-.85 3.35-.504 3.596 1.413 6.447z"/><path fill="#fdfdfd" fill-opacity=".078" d="M618.365 566.182c3.535-3.244 6.689-6.079 10.408-9.142-1.376 2.965-3.109 5.988-4.686 8.867-2.417.324-3.285.36-5.722.275"/><path fill="#fdfdfd" fill-opacity=".039" d="M543.47 945.033c2.318-1.773 13.64-5.366 17.305-6.717 38.285-14.123 72.36-35.558 102.023-63.521l3.535.512c2.298.328 5.005.979 4.846 3.695-1.102 1.437-1.045 1.536-2.74 2.343-1.369-.05-.93.086-2.155-.394-1.216 1.921-1.393 2.302-2.208 4.44.918 1.106.754.746 2.695.938-35.704 23.827-81.338 47.969-123.301 58.704"/><path fill="#1d6894" d="M199.493 329.096c.058-3.373 9.705-21.477 11.69-25.226a431.2 431.2 0 0 1 118.506-140.622 412.52 412.52 0 0 1 305.465-83.451c106.144 13.818 205.771 70.13 275.69 150.693a440 440 0 0 1 29.696 38.046c5.996 8.678 12.272 19.254 18.588 27.462 5.206 9.238 11.747 20.194 16.4 29.585 17.666 35.68 32.24 74.877 40.14 113.918a429 429 0 0 1 5.207 32.51c.618 5.136 1.904 19.198 3.125 23.249v47.903c-1.27 3.354-1.577 11.382-2.007 15.318a2250 2250 0 0 1-3.772 31.474c-2.454 18.256-7.467 40.899-12.374 58.65-39.527 143.086-136.152 256.828-268.899 323.13a457 457 0 0 1-118.923 41.304l-15.413 3.015a717 717 0 0 1-39.088 5.107c-5.374.525-24.65 1.573-28.722 2.839h-51.589c-3.12-1.16-31.13-3.768-37.04-4.469a502 502 0 0 1-31.428-4.956 512 512 0 0 1-212.285-95.1 507.6 507.6 0 0 1-185.048-273.47 467 467 0 0 1-11.65-55.649l.64-1.232c2.757.266 3.801 10.563 5.376 13.656l.215.581c2.872 8.004 5.209 20.308 7.618 28.902a444 444 0 0 0 16.364 46.477c79.929 192.106 278.393 321.368 486.716 271.97 7.102-1.683 13.774-3.846 20.779-5.677 41.963-10.735 87.597-34.877 123.301-58.704a468.54 468.54 0 0 0 158.72-191.262c44.282-98.026 51.082-202.445 12.899-303.595a366.5 366.5 0 0 0-192.053-204.225c-11.998-5.325-26.35-9.823-38.978-13.28-51.048-13.978-103.957-14.672-155.808-4.685-15.229 2.933-30.83 7.62-45.861 11.594-62.325 20.427-118.442 56.367-160.213 107.254a354 354 0 0 0-20.725 28.23c-2.138 3.183-9.904 15.254-12.096 17.558-.557 1.05-.613 1.01-1.517 1.813-3.102.3-8.716-4.556-11.646-6.635"/><path fill="#af2a32" d="M646.337 187.247c12.038-2.587 77.66 34.515 90.767 42.983a433.76 433.76 0 0 1 188.735 272.804 431.38 431.38 0 0 1-60.76 325.595 436.3 436.3 0 0 1-119.017 121.81 344 344 0 0 1-24.003 15.455c-3.494 2.032-14.975 8.286-17.555 10.359a472 472 0 0 1-50.918 22.31c-4.735 1.7-28.11 8.762-30.92 10.331-1.831.778-3.642 1.31-4.875 2.83.058.496.05.88.234 1.315l-15.413 3.015a717 717 0 0 1-39.088 5.107c-5.374.525-24.65 1.573-28.722 2.839h-51.589c-3.12-1.16-31.13-3.768-37.04-4.469a502 502 0 0 1-31.428-4.956 512 512 0 0 1-212.285-95.1 507.6 507.6 0 0 1-185.048-273.47 467 467 0 0 1-11.65-55.649l.64-1.232c2.757.266 3.801 10.563 5.376 13.656l.215.581c2.872 8.004 5.209 20.308 7.618 28.902a444 444 0 0 0 16.364 46.477c79.929 192.106 278.393 321.368 486.716 271.97 7.102-1.683 13.774-3.846 20.779-5.677 41.963-10.735 87.597-34.877 123.301-58.704a468.54 468.54 0 0 0 158.72-191.262c44.282-98.026 51.082-202.445 12.899-303.595a366.5 366.5 0 0 0-192.053-204.225"/><path fill="#654c67" d="M602.612 1016.054c4.927-6.083 12.361-6.025 20.054-7.16-1.831.778-3.642 1.31-4.875 2.83.058.496.05.88.234 1.315z"/><path fill="#004cff" d="M400.271 178.668c16.427-7.548 37.772-13.967 55.331-18.238a413.74 413.74 0 0 1 242.492 15.217A420.56 420.56 0 0 1 934.535 392.08c46.87 102.372 47.927 217.162 8.569 322.233-39.715 106.025-117.555 198.795-218.19 251.715-6.328 3.33-13.586 8.63-20.41 10.224 2.58-2.073 14.061-8.327 17.555-10.359a344 344 0 0 0 24.003-15.454 436.3 436.3 0 0 0 119.017-121.811 431.38 431.38 0 0 0 60.76-325.595A433.76 433.76 0 0 0 737.104 230.23c-13.107-8.468-78.73-45.57-90.767-42.983-11.998-5.325-26.35-9.823-38.978-13.28-51.048-13.978-103.957-14.672-155.808-4.685-15.229 2.933-30.83 7.62-45.861 11.594-1.63-1.888-2.932-1.811-5.419-2.208"/><path fill="#fdfdfd" d="M199.493 329.096c.058-3.373 9.705-21.477 11.69-25.226a431.2 431.2 0 0 1 118.506-140.622 412.52 412.52 0 0 1 305.465-83.451c106.144 13.818 205.771 70.13 275.69 150.693a440 440 0 0 1 29.696 38.046c5.996 8.678 12.272 19.254 18.588 27.462 5.206 9.238 11.747 20.194 16.4 29.585 17.666 35.68 32.24 74.877 40.14 113.918a429 429 0 0 1 5.207 32.51c.618 5.136 1.904 19.198 3.125 23.249v13.303c-.958-3.977-1.614-12.443-2.105-16.937a361 361 0 0 0-3.371-23.429 472 472 0 0 0-31.61-102.34 468.4 468.4 0 0 0-256.7-247.08 403.15 403.15 0 0 0-309.395 6.8 410.4 410.4 0 0 0-184.31 162.422c-7.327 12.083-18.723 32.703-23.853 45.919-.557 1.05-.613 1.01-1.517 1.813-3.102.3-8.716-4.556-11.646-6.635"/><path fill="#1d6894" d="M9.228 575.152c6.287 22.327 12.063 42.189 21.145 63.71a467.4 467.4 0 0 0 198.542 222.72 368.65 368.65 0 0 0 281.991 34.496c98.66-28.009 185.086-99.263 221.733-196.162 3.769-9.965 10.945-25.018 8.798-35.533a281 281 0 0 0 5.14-11.792 281.9 281.9 0 0 1-67.44 205.066c-4.727 5.514-10.895 12.358-16.339 17.138-29.663 27.963-63.738 49.398-102.023 63.52-3.666 1.352-14.987 4.945-17.305 6.718-7.005 1.831-13.677 3.994-20.78 5.677-208.322 49.398-406.786-79.864-486.715-271.97a444 444 0 0 1-16.364-46.477c-2.41-8.594-4.746-20.898-7.618-28.902l-.215-.581v-.873c.03-5.32-1.722-11.116-2.397-16.535-.28-2.245-.83-6.558-1.036-9.032q.442-.59.883-1.188"/><path fill="#af2a32" d="m367.815 27.263 2.423.337c.466.883.398.466.389 1.207-23.005 7.543-38.43 17.377-58.814 29.663-13.944 8.405-25.697 15.585-39.03 25.203a447.5 447.5 0 0 0-137.44 161.16A423.53 423.53 0 0 0 110.035 567a420.12 420.12 0 0 0 208.562 242.795c6.071 3.067 14.263 7.25 21.154 6.75 37.052 18.207 96.87 28.487 137.776 24.912-3.875 3.186-12.812 3.915-17.723 4.3-61.606 4.821-124.916-3.022-181.776-27.963A379.76 379.76 0 0 1 77.013 608.92a420.23 420.23 0 0 1 7.754-319.963A489.67 489.67 0 0 1 302.79 54.73c9.457-4.935 18.857-8.68 28.69-12.763a1436 1436 0 0 1 36.335-14.704"/><path fill="#af2a32" d="M160.923 508.994c-4.333-5.014-4.432-38.462-4.484-45.736a437 437 0 0 1 55.218-218.429A393.22 393.22 0 0 1 449.065 56.025c108.589-30.772 221.528-13.707 319.46 41.186A487.35 487.35 0 0 1 938.02 257.889c5.726 8.89 18.383 28.463 21.107 38.11-6.316-8.209-12.592-18.785-18.588-27.463a440 440 0 0 0-29.696-38.046c-69.919-80.562-169.546-136.875-275.69-150.693a412.52 412.52 0 0 0-305.465 83.451A431.2 431.2 0 0 0 211.183 303.87c-1.985 3.749-11.632 21.853-11.69 25.226-1.604.625-1.722 1.107-2.572 3.1-2.155 5.048-4.055 10.307-6.064 15.427a442.4 442.4 0 0 0-29.934 161.37"/><path fill="#654c67" d="M0 531.235c.338.356 1.027 1.04 1.09 1.515.981 7.402 8.214 37.217 8.138 42.402q-.44.597-.883 1.188c.206 2.474.756 6.787 1.036 9.032.675 5.419 2.427 11.214 2.396 16.535v.873c-1.574-3.093-2.618-13.39-5.376-13.656l-.638 1.232c-1.033-3.411-.863-7.491-1.597-10.89C1.264 566.033 2.802 548.658 0 535.748z"/><path fill="#654c67" d="M403.719 16.07c-5.394 3.407-26.701 11.346-33.092 12.737.009-.74.077-.324-.389-1.207l-2.423-.337c9.812-4.77 25.142-9.24 35.904-11.192"/></svg>