<?xml version="1.0" encoding="UTF-8"?>
<svg version="1.1" xmlns="http://www.w3.org/2000/svg" width="897" height="278">
<path d="M0 0 C5.19279196 0.74182742 8.16204735 1.25460498 12.7109375 3.22265625 C13.77787842 3.67495605 14.84481934 4.12725586 15.9440918 4.59326172 C17.0762915 5.07811035 18.20849121 5.56295898 19.375 6.0625 C45.1333873 16.78454865 72.74873676 26.28945023 100.97265625 26.09765625 C101.69094604 26.09664917 102.40923584 26.09564209 103.14929199 26.09460449 C105.78704465 26.08944255 108.42477424 26.0754824 111.0625 26.0625 C119.9415625 26.0315625 119.9415625 26.0315625 129 26 C129 48.11 129 70.22 129 93 C190.38 93.495 190.38 93.495 253 94 C253 92.02 253 90.04 253 88 C251.69930069 87.98969254 250.39860138 87.97938507 249.05848694 87.96876526 C236.82963276 87.87121467 224.60083156 87.7684985 212.37206364 87.66066074 C206.08440509 87.60538163 199.79674195 87.5519538 193.5090332 87.50268555 C187.4465814 87.45511539 181.38418818 87.40277553 175.32180595 87.34705925 C173.00325406 87.32660228 170.68468608 87.30789487 168.36610603 87.29092598 C165.13081134 87.26695569 161.89562856 87.23689142 158.66040039 87.20532227 C157.69151886 87.1995668 156.72263733 87.19381134 155.72439575 87.18788147 C154.84794907 87.17809265 153.97150238 87.16830383 153.0684967 87.15821838 C152.30248673 87.15176583 151.53647676 87.14531328 150.74725437 87.1386652 C149 87 149 87 148 86 C147.90608704 84.09756238 147.88256342 82.19161541 147.88647461 80.28686523 C147.88655014 79.0656749 147.88662567 77.84448456 147.88670349 76.58628845 C147.89181089 75.24372314 147.89702689 73.90115825 147.90234375 72.55859375 C147.90420801 71.19238842 147.90563187 69.82618243 147.90663147 68.4599762 C147.91045606 64.85798305 147.92028583 61.25603 147.93133545 57.65405273 C147.94155084 53.98096255 147.94612936 50.30786591 147.95117188 46.63476562 C147.96190816 39.42315877 147.97898386 32.211585 148 25 C151.28575157 23.59478885 154.34489144 22.62706715 157.86499023 22.02612305 C159.28246552 21.77999771 159.28246552 21.77999771 160.72857666 21.52890015 C162.25318512 21.27289536 162.25318512 21.27289536 163.80859375 21.01171875 C164.87454773 20.8283194 165.94050171 20.64492004 167.03875732 20.45596313 C170.50412002 19.86116583 173.97076959 19.27426818 177.4375 18.6875 C179.8279564 18.27868042 182.2183371 17.86941787 184.60864258 17.4597168 C197.92953587 15.18081757 211.25680658 12.94139286 224.59301758 10.75390625 C231.07193343 9.68305748 237.53705494 8.55108444 243.99609375 7.3671875 C244.75840805 7.2275206 245.52072235 7.0878537 246.30613708 6.94395447 C250.02067692 6.26184617 253.73403921 5.57393866 257.44604492 4.87817383 C258.77912971 4.63099837 260.11221868 4.3838455 261.4453125 4.13671875 C262.61594238 3.91717529 263.78657227 3.69763184 264.99267578 3.47143555 C268 3 268 3 272 3 C272 18.18 272 33.36 272 49 C250.24065516 49.04934092 228.49983582 48.89291294 206.74407959 48.53643799 C202.91405105 48.47424833 199.08397668 48.41501223 195.25390625 48.35546875 C187.83589189 48.23973999 180.41793119 48.1209551 173 48 C173 50.31 173 52.62 173 55 C205.67 55 238.34 55 272 55 C272 68.2 272 81.4 272 95 C315.56 95 359.12 95 404 95 C404 93.35 404 91.7 404 90 C402.96385056 90.00333092 402.96385056 90.00333092 401.9067688 90.00672913 C392.9795235 90.03403389 384.05227895 90.05192295 375.125 90.0625 C374.04898529 90.06378403 374.04898529 90.06378403 372.95123291 90.06509399 C345.2856918 90.09422216 317.66084848 89.65859163 290 89 C290 59.63 290 30.26 290 0 C293.94758229 0.98689557 295.28534096 1.82467038 298.375 4.25 C312.00524999 13.96030948 329.3118716 15.46217595 345.5 17.25 C346.33168701 17.34240967 347.16337402 17.43481934 348.02026367 17.5300293 C350.00945603 17.73172843 352.00470317 17.87209636 354 18 C354.33 17.67 354.66 17.34 355 17 C357.11094665 16.688642 359.23032839 16.43422112 361.3515625 16.203125 C362.68469155 16.05135415 364.01769535 15.89847996 365.35058594 15.74462891 C366.39901672 15.62441376 366.39901672 15.62441376 367.46862793 15.50177002 C392.69632057 12.7567369 392.69632057 12.7567369 414 0 C414.99 0 415.98 0 417 0 C417 10.89 417 21.78 417 33 C406.875 33 406.875 33 401.9375 32 C400.308125 31.67 398.67875 31.34 397 31 C403.6 32.32 410.2 33.64 417 35 C417 80.87 417 126.74 417 174 C387.07546716 174 357.18330682 173.98639799 327.26739502 173.53643799 C323.02009861 173.4733954 318.7727419 173.41467766 314.52539062 173.35546875 C306.35019922 173.24093078 298.17508818 173.12168296 290 173 C290 164.09 290 155.18 290 146 C284.06 146 278.12 146 272 146 C272 154.91 272 163.82 272 173 C259.20833951 173.02958714 246.41668995 173.05090773 233.625 173.0625 C232.21802731 173.06378403 232.21802731 173.06378403 230.78263092 173.06509399 C203.17436103 173.08737712 175.594706 172.95743714 148 172 C148 163.09 148 154.18 148 145 C144.7 145 141.4 145 138 145 C135.03 144.67 132.06 144.34 129 144 C129 152.91 129 161.82 129 171 C125.21729312 171.75654138 122.44753763 172.1165429 118.69120789 172.08229065 C117.64315066 172.07527162 116.59509344 172.06825258 115.51527691 172.06102085 C114.37159051 172.04805438 113.22790411 172.03508791 112.04956055 172.02172852 C110.81984685 172.01193686 109.59013315 172.00214521 108.3231554 171.99205685 C105.00426208 171.96464411 101.68547297 171.93274279 98.36664581 171.89864349 C95.24954711 171.86757016 92.13240436 171.84216319 89.01525879 171.81628418 C79.90595489 171.73736852 70.79673139 171.64938289 61.6875 171.5625 C41.330625 171.376875 20.97375 171.19125 0 171 C0 114.57 0 58.14 0 0 Z M381 27 C385 28 385 28 385 28 Z M45 54 C45 58.95 45 63.9 45 69 C56.88 69 68.76 69 81 69 C81 64.05 81 59.1 81 54 C69.12 54 57.24 54 45 54 Z M338 56 C338 61.28 338 66.56 338 72 C348.89 72 359.78 72 371 72 C371 66.72 371 61.44 371 56 C369.576875 56.165 368.15375 56.33 366.6875 56.5 C357.02755136 57.4510498 347.64744279 56.90799462 338 56 Z " fill="#7F0626" transform="translate(28,90)"/>
<path d="M0 0 C1.06011292 -0.00281982 2.12022583 -0.00563965 3.21246338 -0.00854492 C4.97200348 -0.00550858 4.97200348 -0.00550858 6.76708984 -0.00241089 C7.99457947 -0.00416321 9.22206909 -0.00591553 10.48675537 -0.00772095 C13.86271013 -0.01137919 17.23860396 -0.010506 20.61455536 -0.00734186 C24.14017318 -0.00481792 27.66578833 -0.00715589 31.19140625 -0.00872803 C37.11312327 -0.01054962 43.03482784 -0.00814367 48.95654297 -0.00338745 C55.81219544 0.00205515 62.66781818 0.00029249 69.52346992 -0.00521386 C75.39946816 -0.00974527 81.27545742 -0.0103954 87.15145683 -0.00777519 C90.66536827 -0.00621257 94.17926572 -0.00601823 97.69317627 -0.00931168 C101.60845098 -0.01272468 105.52369211 -0.00800019 109.43896484 -0.00241089 C110.61199158 -0.00443512 111.78501831 -0.00645935 112.99359131 -0.00854492 C114.58376068 -0.00431519 114.58376068 -0.00431519 116.20605469 0 C117.1330014 0.00037703 118.05994812 0.00075405 119.01498413 0.0011425 C121.10302734 0.12698364 121.10302734 0.12698364 122.10302734 1.12698364 C122.20094018 3.9464551 122.23295433 6.74142989 122.22328186 9.56132507 C122.2245635 10.90405366 122.2245635 10.90405366 122.22587103 12.27390808 C122.22752858 15.29730013 122.22199998 18.32063766 122.21655273 21.34402466 C122.2162709 23.50178018 122.21642853 25.6595358 122.21699524 27.81729126 C122.21728335 33.69515209 122.21138453 39.57299271 122.20442128 45.45084882 C122.19818989 51.58613309 122.19758412 57.72141777 122.19639587 63.85670471 C122.19328192 75.48373797 122.18506768 87.11076187 122.17504638 98.737791 C122.16388722 111.97093482 122.1583753 125.20407907 122.15335095 138.43722641 C122.14288511 165.66715068 122.12528444 192.89706664 122.10302734 220.12698364 C105.85686577 220.15033008 89.61070962 220.16797141 73.36453533 220.17879581 C65.821387 220.18395505 58.27824907 220.1909907 50.73510742 220.2024231 C44.16154229 220.21238127 37.58798469 220.21883978 31.01441222 220.22107214 C27.53283461 220.22237731 24.05127858 220.22545101 20.56970787 220.2327137 C16.68587205 220.24075003 12.80205747 220.24097405 8.91821289 220.24050903 C7.7601564 220.24410431 6.60209991 220.24769958 5.40895081 220.25140381 C3.82511093 220.24934181 3.82511093 220.24934181 2.20927429 220.24723816 C0.83073288 220.24862085 0.83073288 220.24862085 -0.57565784 220.25003147 C-2.89697266 220.12698364 -2.89697266 220.12698364 -5.89697266 219.12698364 C-5.89697266 173.25698364 -5.89697266 127.38698364 -5.89697266 80.12698364 C8.45802734 79.13698364 8.45802734 79.13698364 23.10302734 78.12698364 C20.34952745 78.12698364 17.63351296 78.23803839 14.88427734 78.38088989 C13.86978516 78.4305188 12.85529297 78.48014771 11.81005859 78.53128052 C9.67184198 78.63675893 7.53381409 78.74613501 5.39599609 78.85940552 C3.87425781 78.93191528 3.87425781 78.93191528 2.32177734 79.00588989 C0.92862305 79.07658691 0.92862305 79.07658691 -0.49267578 79.14871216 C-2.89697266 79.12698364 -2.89697266 79.12698364 -5.89697266 78.12698364 C-5.92009675 68.10470601 -5.93788808 58.08243467 -5.94878483 48.06013584 C-5.95401351 43.40687178 -5.96111089 38.75362591 -5.97241211 34.10037231 C-5.98324152 29.61353818 -5.9892496 25.1267216 -5.9918499 20.63987541 C-5.99370405 18.92418072 -5.99732448 17.20848703 -6.00270271 15.49279976 C-6.00991387 13.09813451 -6.01096357 10.70354268 -6.01049805 8.30886841 C-6.01409332 7.59245682 -6.0176886 6.87604523 -6.02139282 6.13792419 C-6.00914184 0.35169145 -5.70305892 0.00231966 0 0 Z M111.41552734 56.06448364 C109.92472656 56.6348938 109.92472656 56.6348938 108.40380859 57.21682739 C107.64455078 57.51717896 106.88529297 57.81753052 106.10302734 58.12698364 C109.88168427 59.38653595 111.1371452 58.60785553 114.79052734 57.18948364 C115.78439453 56.80921021 116.77826172 56.42893677 117.80224609 56.03713989 C118.56150391 55.73678833 119.32076172 55.43643677 120.10302734 55.12698364 C116.32437042 53.86743133 115.06890948 54.64611175 111.41552734 56.06448364 Z M93.31005859 61.36917114 C92.43285156 61.63085083 91.55564453 61.89253052 90.65185547 62.16213989 C89.74886719 62.43928833 88.84587891 62.71643677 87.91552734 63.00198364 C86.54364258 63.40610474 86.54364258 63.40610474 85.14404297 63.81838989 C80.1694701 65.1670743 80.1694701 65.1670743 76.10302734 68.12698364 C85.32680611 66.51648259 94.1585771 63.84559845 103.10302734 61.12698364 C103.10302734 60.79698364 103.10302734 60.46698364 103.10302734 60.12698364 C99.57010946 60.00233393 96.69286628 60.3587974 93.31005859 61.36917114 Z M61.29052734 70.12698364 C60.50226563 70.31776489 59.71400391 70.50854614 58.90185547 70.70510864 C56.96767744 71.17400029 55.03517743 71.64980435 53.10302734 72.12698364 C53.10302734 72.45698364 53.10302734 72.78698364 53.10302734 73.12698364 C60.77305564 72.69674995 67.76199676 71.38467003 75.10302734 69.12698364 C75.10302734 68.79698364 75.10302734 68.46698364 75.10302734 68.12698364 C70.26928239 67.81700401 65.94045842 68.97327065 61.29052734 70.12698364 Z M49.10302734 73.12698364 C53.10302734 74.12698364 53.10302734 74.12698364 53.10302734 74.12698364 Z M36.10302734 75.12698364 C36.10302734 75.45698364 36.10302734 75.78698364 36.10302734 76.12698364 C42.53802734 75.63198364 42.53802734 75.63198364 49.10302734 75.12698364 C49.10302734 74.79698364 49.10302734 74.46698364 49.10302734 74.12698364 C44.58685136 74.05043829 40.51217517 74.02469668 36.10302734 75.12698364 Z " fill="#7E0626" transform="translate(463.89697265625,44.873016357421875)"/>
<path d="M0 0 C41.91 0 83.82 0 127 0 C127 15.84 127 31.68 127 48 C120.07 49.485 120.07 49.485 113 51 C117 50 117 50 127 50 C127 105.44 127 160.88 127 218 C85.09 218 43.18 218 0 218 C0 146.06 0 74.12 0 0 Z M106 53 C105.34 53.66 104.68 54.32 104 55 C105.32 54.67 106.64 54.34 108 54 C107.34 53.67 106.68 53.34 106 53 Z M91.25 58.4375 C90.1775 58.953125 89.105 59.46875 88 60 C91.40931897 61.13643966 92.00335456 60.86747764 95.1875 59.5625 C96.26064453 59.13130859 96.26064453 59.13130859 97.35546875 58.69140625 C97.89816406 58.46324219 98.44085937 58.23507813 99 58 C95.83246499 56.94181906 94.25254899 56.99396683 91.25 58.4375 Z M78 64 C81.62326739 65.2077558 82.64146369 64.54311128 86 63 C82.37673261 61.7922442 81.35853631 62.45688872 78 64 Z M74 65 C73.34 65.66 72.68 66.32 72 67 C73.98 66.67 75.96 66.34 78 66 C76.10820797 65.3185177 76.10820797 65.3185177 74 65 Z M68 67 C72 68 72 68 72 68 Z M61 70 C64.465 69.505 64.465 69.505 68 69 C64.51418144 67.7979936 64.32007656 67.78661563 61 70 Z M46.10546875 71.83984375 C31.69661543 74.51816062 17.65021959 75.77231706 3 76 C3 76.66 3 77.32 3 78 C21.00953125 78.60143147 38.50903453 76.11787301 56 72 C56 71.67 56 71.34 56 71 C52.57167431 70.91798264 49.46847273 71.18389571 46.10546875 71.83984375 Z " fill="#7F0626" transform="translate(743,48)"/>
<path d="M0 0 C0.74548096 0.47993408 1.49096191 0.95986816 2.2590332 1.4543457 C3.24218506 2.08429443 4.22533691 2.71424316 5.23828125 3.36328125 C6.21063721 3.98759033 7.18299316 4.61189941 8.18481445 5.25512695 C20.27771587 12.75039765 35.0327547 15.36571436 49 17 C50.09957031 17.13535156 51.19914063 17.27070312 52.33203125 17.41015625 C68.33906175 18.9455605 84.24916191 17.00222203 99.8125 13.1875 C100.78372803 12.951521 101.75495605 12.71554199 102.75561523 12.47241211 C112.06850924 10.02774727 119.76286752 6.33249092 127 0 C127.66 0 128.32 0 129 0 C129 10.56 129 21.12 129 32 C113.25 30.875 113.25 30.875 107.625 29.9375 C106.54476562 29.76089844 105.46453125 29.58429688 104.3515625 29.40234375 C103.57554687 29.26957031 102.79953125 29.13679688 102 29 C106.31351278 29.63918699 110.62561123 30.28745521 114.9375 30.9375 C116.16919922 31.11990234 117.40089844 31.30230469 118.66992188 31.49023438 C119.83974609 31.66748047 121.00957031 31.84472656 122.21484375 32.02734375 C123.29886475 32.18968506 124.38288574 32.35202637 125.49975586 32.51928711 C128 33 128 33 129 34 C129.11388195 36.79345729 129.16420352 39.56113876 129.16796875 42.35546875 C129.17129715 43.20869217 129.17462555 44.06191559 129.17805481 44.94099426 C129.18313437 46.7594041 129.18546282 48.57782331 129.18530273 50.39624023 C129.18745542 53.13086314 129.205504 55.86505982 129.22460938 58.59960938 C129.31184872 84.93039959 123.47544962 106.89821097 104.63671875 126.453125 C89.50220251 141.07194661 71.77447341 151.88661084 52.93969727 161.03710938 C51.70223466 161.6514017 50.4746269 162.28625862 49.26147461 162.94726562 C43.08443672 166.25684079 36.48661669 168.38434346 29.85375977 170.57421875 C27.80331499 171.2530408 25.75811404 171.94625148 23.71289062 172.640625 C22.39872775 173.07899608 21.08428397 173.51652615 19.76953125 173.953125 C17.99993042 174.54335449 17.99993042 174.54335449 16.19458008 175.14550781 C13.27774586 175.92570802 10.99428607 176.18443704 8 176 C10.97494457 171.90264045 13.98991945 167.96277905 17.4375 164.25 C26.67841595 153.79749729 30.63847829 143.28239241 30.2890625 129.48046875 C29.16909336 115.9954349 23.27504925 105.05230537 17.1796875 93.2265625 C14.13886344 87.3200983 11.26918319 81.3506676 8.5 75.3125 C8.10345215 74.46550537 7.7069043 73.61851074 7.29833984 72.74584961 C6.13293579 70.18709265 5.05751485 67.60505649 4 65 C3.6174707 64.14494873 3.23494141 63.28989746 2.84082031 62.40893555 C-1.71308489 50.56496364 -0.42854557 37.65789777 -0.25 25.1875 C-0.22990475 22.74155108 -0.21165933 20.29558622 -0.1953125 17.84960938 C-0.1515569 11.8993879 -0.08488465 5.94976948 0 0 Z M75 23 C79 24 79 24 79 24 Z M79 24 C83 25 83 25 83 25 Z M83 25 C87 26 87 26 87 26 Z M88 26 C92 27 92 27 92 27 Z " fill="#7E0626" transform="translate(600,92)"/>
<path d="M0 0 C1.06011292 -0.00281982 2.12022583 -0.00563965 3.21246338 -0.00854492 C4.97200348 -0.00550858 4.97200348 -0.00550858 6.76708984 -0.00241089 C7.99457947 -0.00416321 9.22206909 -0.00591553 10.48675537 -0.00772095 C13.86271013 -0.01137919 17.23860396 -0.010506 20.61455536 -0.00734186 C24.14017318 -0.00481792 27.66578833 -0.00715589 31.19140625 -0.00872803 C37.11312327 -0.01054962 43.03482784 -0.00814367 48.95654297 -0.00338745 C55.81219544 0.00205515 62.66781818 0.00029249 69.52346992 -0.00521386 C75.39946816 -0.00974527 81.27545742 -0.0103954 87.15145683 -0.00777519 C90.66536827 -0.00621257 94.17926572 -0.00601823 97.69317627 -0.00931168 C101.60845098 -0.01272468 105.52369211 -0.00800019 109.43896484 -0.00241089 C110.61199158 -0.00443512 111.78501831 -0.00645935 112.99359131 -0.00854492 C114.58376068 -0.00431519 114.58376068 -0.00431519 116.20605469 0 C117.1330014 0.00037703 118.05994812 0.00075405 119.01498413 0.0011425 C121.10302734 0.12698364 121.10302734 0.12698364 122.10302734 1.12698364 C122.19643168 2.75373142 122.22047905 4.38452416 122.21655273 6.01394653 C122.2164772 7.0549501 122.21640167 8.09595367 122.21632385 9.16850281 C122.21116257 10.30077805 122.20600128 11.43305328 122.20068359 12.59963989 C122.19856117 14.32880898 122.19856117 14.32880898 122.19639587 16.09291077 C122.1907774 19.79179428 122.17822176 23.49061828 122.16552734 27.18948364 C122.16051472 29.69013381 122.15595141 32.19078493 122.15185547 34.69143677 C122.14080196 40.83663952 122.12404586 46.98180733 122.10302734 53.12698364 C111.34306184 57.20007788 100.65902588 61.07669329 89.54052734 64.06448364 C88.450625 64.3667688 87.36072266 64.66905396 86.23779297 64.98049927 C78.41602338 67.12698364 78.41602338 67.12698364 76.10302734 67.12698364 C75.77302734 67.78698364 75.44302734 68.44698364 75.10302734 69.12698364 C73.09941457 69.34165644 71.09463574 69.54698104 69.08740234 69.72463989 C66.27813181 70.10337663 63.60817235 70.71197137 60.86621094 71.4211731 C11.84687784 84.04160047 11.84687784 84.04160047 -5.89697266 78.12698364 C-5.92009675 68.10470601 -5.93788808 58.08243467 -5.94878483 48.06013584 C-5.95401351 43.40687178 -5.96111089 38.75362591 -5.97241211 34.10037231 C-5.98324152 29.61353818 -5.9892496 25.1267216 -5.9918499 20.63987541 C-5.99370405 18.92418072 -5.99732448 17.20848703 -6.00270271 15.49279976 C-6.00991387 13.09813451 -6.01096357 10.70354268 -6.01049805 8.30886841 C-6.01409332 7.59245682 -6.0176886 6.87604523 -6.02139282 6.13792419 C-6.00914184 0.35169145 -5.70305892 0.00231966 0 0 Z " fill="#253651" transform="translate(463.89697265625,44.873016357421875)"/>
<path d="M0 0 C41.91 0 83.82 0 127 0 C127 15.84 127 31.68 127 48 C120.07 49.485 120.07 49.485 113 51 C109.23120124 52.29037028 109.23120124 52.29037028 106.125 53.8125 C98.53454133 57.2388076 90.83378759 60.18593971 83 63 C81.7625 63.44472656 80.525 63.88945313 79.25 64.34765625 C69.94887586 67.56954989 60.62981635 70.024801 51 72 C50.12230957 72.18481934 49.24461914 72.36963867 48.34033203 72.56005859 C31.7744795 75.96550191 17.30011074 76 0 76 C0 50.92 0 25.84 0 0 Z " fill="#253652" transform="translate(743,48)"/>
<path d="M0 0 C0.99 0.495 0.99 0.495 2 1 C2.74609375 3.859375 2.74609375 3.859375 3.4375 7.75 C3.56527832 8.45157227 3.69305664 9.15314453 3.82470703 9.87597656 C4.55616826 14.00985437 5.16289685 18.14692479 5.68359375 22.3125 C7.63697605 38.62809201 7.63697605 38.62809201 15.3125 52.9375 C22.65215955 58.57026198 27.61140669 61.18054987 37 61 C37.20753906 60.34773438 37.41507812 59.69546875 37.62890625 59.0234375 C39.45803561 53.83452661 41.25427616 49.52949764 45.67578125 46.10546875 C49.77460131 44.15594593 54.11621519 43.89092139 58.59765625 43.51953125 C62.33987279 42.94810209 64.82197968 42.05256755 68 40 C69.2988427 37.68643645 69.96502617 35.48757201 70.75 32.9609375 C72 31 72 31 74.74609375 29.97265625 C80.05978886 30.01730915 83.03091962 33.26458519 87.09765625 36.41015625 C89.83367046 38.31042938 89.83367046 38.31042938 92.51953125 37.51171875 C95.39045066 35.76204031 97.98922601 33.83872656 100.625 31.75 C105.22300675 28.20191508 109.88124178 25.19312835 115.04296875 22.52734375 C117.19331451 21.41666318 119.31808788 20.25603934 121.42578125 19.06640625 C137.95470213 9.76169503 158.72451096 1.2427115 178 4 C181.58921281 6.48483964 183.38881023 9.0034124 185 13 C185.23046875 16.12890625 185.23046875 16.12890625 185.1875 19.5625 C185.17783203 21.26599609 185.17783203 21.26599609 185.16796875 23.00390625 C185 26 185 26 184 29 C184.94875 29.268125 185.8975 29.53625 186.875 29.8125 C190 31 190 31 192 34 C193.25064233 42.75449629 188.71326443 48.93010336 184 56 C183.34 56 182.68 56 182 56 C181.60361328 56.86818359 181.60361328 56.86818359 181.19921875 57.75390625 C178.03558045 63.67928743 173.15165441 68.17812296 167.6171875 71.85546875 C165.75250545 73.1069171 165.75250545 73.1069171 163.5 75.5 C160.49946239 78.50053761 157.59574882 80.73601 154 83 C153.01 82.67 152.02 82.34 151 82 C151.56920166 81.44127197 152.13840332 80.88254395 152.72485352 80.30688477 C155.34285056 77.73089478 157.95268706 75.14678018 160.5625 72.5625 C161.45775391 71.68400391 162.35300781 70.80550781 163.27539062 69.90039062 C178.34843635 55.2111931 178.34843635 55.2111931 185 36 C184.01 35.67 183.02 35.34 182 35 C181.01 35.7425 181.01 35.7425 180 36.5 C179.01 37.2425 179.01 37.2425 178 38 C177.01 37.67 176.02 37.34 175 37 C175.2165625 36.28714844 175.433125 35.57429688 175.65625 34.83984375 C177.96321458 27.03482613 177.96321458 27.03482613 178 19 C176.45737187 16.89641619 175.31891683 16.15945841 173 15 C148.45283905 12.85783002 125.03226001 25.6391196 106 40 C104.60443967 41.03942914 103.2086003 42.07848373 101.8125 43.1171875 C99.0742716 45.16212518 96.34333421 47.21633355 93.6171875 49.27734375 C72.616433 65.12316966 53.71758901 74.83069951 26.8125 71.375 C17.08075626 69.47580371 8.77600567 65.19334252 2.55078125 57.3828125 C-3.3402804 48.33105531 -3.08650367 36.46759326 -4 26 C-5.69847665 33.29751356 -6.26441939 40.30186611 -6.36328125 47.77734375 C-7 51 -7 51 -9.19482422 52.66943359 C-12.20572356 54.09757993 -14.20851157 54.41923217 -17.51953125 54.51171875 C-18.54111328 54.54716797 -19.56269531 54.58261719 -20.61523438 54.61914062 C-21.67033203 54.64169922 -22.72542969 54.66425781 -23.8125 54.6875 C-24.88693359 54.72166016 -25.96136719 54.75582031 -27.06835938 54.79101562 C-29.71213533 54.87326643 -32.35558921 54.94249209 -35 55 C-34.21262451 55.23477051 -33.42524902 55.46954102 -32.61401367 55.71142578 C-16.55012512 60.59148813 -3.74052505 69.73671286 8.59375 80.88671875 C16.4365861 87.77466409 23.96658333 93.68476267 34 97 C35.3810669 97.56882072 36.75685977 98.15075458 38.125 98.75 C39.07375 99.1625 40.0225 99.575 41 100 C41 101.65 41 103.3 41 105 C35.39735073 106.86754976 30.01150663 103.91997213 24.83984375 101.5546875 C16.326296 97.19136744 9.31198375 91.67852259 2.17382812 85.39160156 C-17.10639409 68.49035622 -37.36679622 58.46756416 -63 56 C-61.31640672 52.37496582 -59.88030841 49.41394323 -56.8125 46.8125 C-56.28269531 46.34457031 -55.75289062 45.87664063 -55.20703125 45.39453125 C-47.2096881 40.34134275 -39.7200303 40.62978598 -30.5 40.8125 C-29.200625 40.82603516 -27.90125 40.83957031 -26.5625 40.85351562 C-23.37456588 40.88867666 -20.18750401 40.93789336 -17 41 C-16.93522461 40.06184448 -16.93522461 40.06184448 -16.86914062 39.10473633 C-16.39312679 33.32433439 -15.459459 28.14352932 -13.5 22.6875 C-13.24516846 21.96691406 -12.99033691 21.24632813 -12.7277832 20.50390625 C-9.92364622 13.0634537 -5.66173509 5.66173509 0 0 Z M77 38 C76.319375 38.9075 75.63875 39.815 74.9375 40.75 C70.160624 46.63455739 63.48073939 47.95568388 56.3125 49.3125 C50.98335048 50.44556684 48.24251005 51.76655729 45.05078125 56.18359375 C42.61188442 60.30886599 42.61188442 60.30886599 42 65 C58.7940245 64.27140892 74.58186188 56.01609027 87 45 C85.52440331 40.57320993 83.09942632 40.08567304 79 38 C78.34 38 77.68 38 77 38 Z " fill="#27354F" transform="translate(89,7)"/>
<path d="M0 0 C3.10867499 3.12313394 4.36359713 5.56817334 4.5546875 10 C4.16194398 14.83565455 3.04974007 17.62279199 -0.71875 20.83203125 C-21.06359176 35.76922919 -51.68372209 35.74556657 -75.63720703 32.60107422 C-88.04896501 30.60508809 -102.17502649 26.81100066 -111.0078125 17.375 C-113.37808812 13.64275649 -113.22196541 10.8781659 -112.59375 6.61328125 C-111.14485451 1.07850049 -107.16874928 -1.72352637 -102.6328125 -4.75 C-76.43158268 -19.57795525 -23.94302629 -19.3780135 0 0 Z " fill="#253550" transform="translate(719.0078125,57.625)"/>
<path d="M0 0 C3.71048666 3.42800105 4.72069712 6.33198317 5.3359375 11.25390625 C4.81226256 15.44330581 3.92243673 17.88329829 0.8984375 20.75390625 C-18.82677462 35.765127 -48.13419929 36.57063986 -71.7265625 33.4375 C-83.76091417 31.65512353 -99.53985575 28.35532333 -107.93359375 18.7734375 C-110.67383598 14.95684787 -111.52577752 12.4022198 -111.1015625 7.75390625 C-108.6004872 1.16016227 -104.36306366 -2.17889021 -98.1015625 -5.24609375 C-89.7718579 -8.50816985 -80.94687434 -10.92772838 -72.1015625 -12.24609375 C-71.38871094 -12.35695312 -70.67585938 -12.4678125 -69.94140625 -12.58203125 C-47.58935925 -15.41916929 -18.51551586 -14.24033861 0 0 Z " fill="#253550" transform="translate(433.1015625,54.24609375)"/>
<path d="M0 0 C0.99 0 1.98 0 3 0 C3 10.89 3 21.78 3 33 C-3.34606384 33 -7.34417704 32.92616696 -13.1875 31.5 C-17.59068298 30.4325617 -21.46422572 29.83481247 -26 30 C-26 29.34 -26 28.68 -26 28 C-26.99 28.33 -27.98 28.66 -29 29 C-29 28.34 -29 27.68 -29 27 C-29.99902344 26.8865625 -30.99804688 26.773125 -32.02734375 26.65625 C-36.03756922 26.08321652 -39.75901147 24.86255986 -43.5625 23.5 C-48.01829504 21.91350126 -52.31349092 20.7157077 -57 20 C-57.66 19.67 -58.32 19.34 -59 19 C-59 18.34 -59 17.68 -59 17 C-58.13947021 16.90501221 -57.27894043 16.81002441 -56.39233398 16.7121582 C-25.93271365 14.33628291 -25.93271365 14.33628291 0 0 Z " fill="#25324C" transform="translate(442,90)"/>
<path d="M0 0 C0 10.56 0 21.12 0 32 C-15.78147289 30.87275194 -15.78147289 30.87275194 -21.76953125 29.765625 C-22.73754417 29.58821777 -22.73754417 29.58821777 -23.72511292 29.40722656 C-25.7561721 29.03099279 -27.78440904 28.64189404 -29.8125 28.25 C-30.50845276 28.11783081 -31.20440552 27.98566162 -31.92144775 27.8494873 C-60.61976155 22.38023845 -60.61976155 22.38023845 -65 18 C-64.42894531 17.97083496 -63.85789062 17.94166992 -63.26953125 17.91162109 C-51.67425308 17.25950191 -40.47488286 15.99156471 -29.1875 13.1875 C-27.7324707 12.83341064 -27.7324707 12.83341064 -26.24804688 12.47216797 C-18.63289425 10.47640937 -6.39529272 0 0 0 Z " fill="#25354F" transform="translate(729,92)"/>
<path d="M0 0 C0 55.44 0 110.88 0 168 C-41.91 168 -83.82 168 -127 168 C-127.04030303 132.97218515 -127.04030303 132.97218515 -127.04882812 118.33203125 C-127.0547696 108.20979304 -127.06176705 98.08756314 -127.07543945 87.96533203 C-127.08539075 80.59448486 -127.0918545 73.22364441 -127.09408849 65.85279071 C-127.09539484 61.94814846 -127.09847591 58.04352542 -127.10573006 54.13888931 C-127.11249729 50.46672484 -127.11461552 46.79458757 -127.11310768 43.12241745 C-127.11351569 41.1260824 -127.11890724 39.12975033 -127.12442017 37.13342285 C-127.1230455 35.95269196 -127.12167084 34.77196106 -127.12025452 33.55545044 C-127.12117631 32.52488588 -127.1220981 31.49432133 -127.12304783 30.43252754 C-127 28 -127 28 -126 26 C-125.34 26 -124.68 26 -124 26 C-124 26.66 -124 27.32 -124 28 C-122.77482666 27.90912109 -122.77482666 27.90912109 -121.52490234 27.81640625 C-117.80843108 27.5420111 -114.09172229 27.27097286 -110.375 27 C-109.08980469 26.90460938 -107.80460938 26.80921875 -106.48046875 26.7109375 C-105.23652344 26.62070313 -103.99257813 26.53046875 -102.7109375 26.4375 C-101.56931152 26.35371094 -100.42768555 26.26992187 -99.25146484 26.18359375 C-96.15908432 26.00898269 -93.09646463 25.96718978 -90 26 C-90.66 26.99 -91.32 27.98 -92 29 C-95.05688477 29.41650391 -95.05688477 29.41650391 -98.94140625 29.4765625 C-99.96571999 29.49993179 -99.96571999 29.49993179 -101.01072693 29.52377319 C-103.19463961 29.57136183 -105.3782316 29.59907966 -107.5625 29.625 C-109.75011351 29.66144824 -111.93754349 29.70202601 -114.12498474 29.74765015 C-116.10734599 29.78737788 -118.08993688 29.81509758 -120.07250977 29.84228516 C-122.88985261 29.66717143 -122.88985261 29.66717143 -124 31 C-124.10852231 32.75855767 -124.14687242 34.52147399 -124.15821838 36.28334045 C-124.1680072 37.42904007 -124.17779602 38.57473969 -124.18788147 39.75515747 C-124.19363693 41.02326263 -124.1993924 42.2913678 -124.20532227 43.59790039 C-124.21489566 44.93793544 -124.22490542 46.27796744 -124.23532104 47.61799622 C-124.26243458 51.26656149 -124.2834091 54.91513979 -124.30332303 58.56375051 C-124.32514295 62.37280116 -124.35255111 66.18181139 -124.37937927 69.99082947 C-124.42936034 77.20854822 -124.47427901 84.42628934 -124.51740164 91.64405197 C-124.57594354 101.39402685 -124.64225938 111.14394861 -124.70815182 120.89387608 C-124.81181116 136.2625483 -124.90504397 151.63126584 -125 167 C-84.08 167 -43.16 167 -1 167 C-1 112.22 -1 57.44 -1 1 C-8.08396594 2.17225952 -8.08396594 2.17225952 -15 4 C-15 3.34 -15 2.68 -15 2 C-9.66451337 -0.84559287 -6.89443818 0 0 0 Z " fill="#651124" transform="translate(870,98)"/>
<path d="M0 0 C3.03459026 4.76864184 4.00967826 7.54480106 3.9375 13.3125 C3.93105469 14.44816406 3.92460937 15.58382813 3.91796875 16.75390625 C3.75 19.75 3.75 19.75 2.75 22.75 C4.173125 23.1521875 4.173125 23.1521875 5.625 23.5625 C8.75 24.75 8.75 24.75 10.75 27.75 C12.00064233 36.50449629 7.46326443 42.68010336 2.75 49.75 C2.09 49.75 1.43 49.75 0.75 49.75 C0.48574219 50.32878906 0.22148437 50.90757813 -0.05078125 51.50390625 C-3.21441955 57.42928743 -8.09834559 61.92812296 -13.6328125 65.60546875 C-15.49749455 66.8569171 -15.49749455 66.8569171 -17.75 69.25 C-20.75053761 72.25053761 -23.65425118 74.48601 -27.25 76.75 C-28.735 76.255 -28.735 76.255 -30.25 75.75 C-29.39619751 74.91190796 -29.39619751 74.91190796 -28.52514648 74.05688477 C-25.90714944 71.48089478 -23.29731294 68.89678018 -20.6875 66.3125 C-19.79224609 65.43400391 -18.89699219 64.55550781 -17.97460938 63.65039062 C-10.85251747 56.58047522 -4.66413215 49.19604616 0.75 40.75 C1.41 41.08 2.07 41.41 2.75 41.75 C-2.32834242 49.46155701 -7.34365526 56.52111687 -14.25 62.75 C-7.57466923 58.38262934 -2.89017511 53.20423534 1.75 46.75 C2.35585938 45.91984375 2.96171875 45.0896875 3.5859375 44.234375 C7.54855954 38.31834773 8.56260621 33.82268371 7.75 26.75 C5.11 26.09 2.47 25.43 -0.25 24.75 C-0.0334375 23.89728516 -0.0334375 23.89728516 0.1875 23.02734375 C2.00270383 15.47660005 2.95287209 9.70090385 -1.25 2.75 C-4.06984584 -0.06984584 -5.92754384 0.41655217 -9.875 0.375 C-29.64511127 0.46589706 -48.34278085 9.27080528 -65.25 18.75 C-66.04535156 19.15734375 -66.84070313 19.5646875 -67.66015625 19.984375 C-71.35508221 21.89054241 -74.66443424 24.03054781 -77.953125 26.5703125 C-78.61892578 27.08037842 -79.28472656 27.59044434 -79.97070312 28.1159668 C-81.30571932 29.14983341 -82.62792208 30.2004984 -83.93554688 31.26879883 C-85.66915823 32.61562202 -87.2739736 33.79309497 -89.25 34.75 C-91.84765625 34.29296875 -91.84765625 34.29296875 -94.25 32.75 C-95.18199219 32.18023437 -96.11398438 31.61046875 -97.07421875 31.0234375 C-98.99089851 29.75262391 -100.90756507 28.48179042 -102.82421875 27.2109375 C-105.06358986 25.57802831 -105.06358986 25.57802831 -107.25 25.75 C-107.25 25.09 -107.25 24.43 -107.25 23.75 C-101.26096919 24.35151838 -98.2726531 26.74104843 -93.71484375 30.44921875 C-91.33374659 32.04295508 -91.33374659 32.04295508 -88.79296875 31.22265625 C-85.85952314 29.52387131 -83.2823836 27.60585115 -80.625 25.5 C-76.02699325 21.95191508 -71.36875822 18.94312835 -66.20703125 16.27734375 C-64.05668549 15.16666318 -61.93191212 14.00603934 -59.82421875 12.81640625 C-45.50939583 4.75808869 -15.12321458 -10.46991779 0 0 Z " fill="#1C2538" transform="translate(270.25,13.25)"/>
<path d="M0 0 C0 15.18 0 30.36 0 46 C-21.75934484 46.04934092 -43.50016418 45.89291294 -65.25592041 45.53643799 C-69.08594895 45.47424833 -72.91602332 45.41501223 -76.74609375 45.35546875 C-84.16410811 45.23973999 -91.58206881 45.1209551 -99 45 C-99 47.31 -99 49.62 -99 52 C-66.33 52 -33.66 52 0 52 C0 65.2 0 78.4 0 92 C4.62 92 9.24 92 14 92 C14 92.33 14 92.66 14 93 C9.05 93 4.1 93 -1 93 C-1 79.8 -1 66.6 -1 53 C-34 53 -67 53 -101 53 C-101 45 -101 45 -100 44 C-96.92545239 43.90467672 -93.87340842 43.8744862 -90.79858398 43.88647461 C-89.34995972 43.88625557 -89.34995972 43.88625557 -87.87207031 43.8860321 C-84.66338901 43.88673166 -81.45476497 43.89452603 -78.24609375 43.90234375 C-76.02791882 43.90420778 -73.80974348 43.90563175 -71.59156799 43.90663147 C-65.74059929 43.91045784 -59.88965523 43.92028914 -54.03869629 43.93133545 C-48.07332696 43.94154701 -42.10795367 43.94612854 -36.14257812 43.95117188 C-24.42837282 43.96191131 -12.71419231 43.97950907 -1 44 C-1.495 23.21 -1.495 23.21 -2 2 C-10.75170784 2.59542106 -10.75170784 2.59542106 -18 6 C-19.41327947 6.15620555 -20.8335459 6.25056173 -22.25390625 6.31640625 C-23.10791016 6.35830078 -23.96191406 6.40019531 -24.84179688 6.44335938 C-26.18854492 6.50233398 -26.18854492 6.50233398 -27.5625 6.5625 C-28.46419922 6.60568359 -29.36589844 6.64886719 -30.29492188 6.69335938 C-32.52978485 6.79978142 -34.76476308 6.90179988 -37 7 C-37 6.67 -37 6.34 -37 6 C-32.3743614 5.14097459 -27.74789504 4.28661079 -23.12060547 3.43652344 C-21.5471279 3.14678318 -19.97388258 2.85577864 -18.40087891 2.56347656 C-16.13764608 2.14314147 -13.87361236 1.72738534 -11.609375 1.3125 C-10.90818542 1.18125732 -10.20699585 1.05001465 -9.48455811 0.91479492 C-6.23577093 0.3238361 -3.31961166 0 0 0 Z " fill="#681324" transform="translate(300,93)"/>
<path d="M0 0 C8.57142857 2.85714286 8.57142857 2.85714286 12 7 C11.690625 7.5775 11.38125 8.155 11.0625 8.75 C10.07416636 10.84294184 9.4831387 12.74535275 9 15 C12.81915388 13.49961812 14.49946383 11.16734582 17 8 C19 8 19 8 22 9 C2.6696392 25.57566565 -17.86712893 37.50822341 -44 36 C-46.81448495 35.53426497 -49.28275691 34.88726305 -52 34 C-48.95406429 33.07882298 -47.62321007 33.05747643 -44.3125 33.5625 C-33.04109705 34.97841178 -18.11386929 33.05363458 -8.70703125 26.37109375 C-8.14371094 25.91863281 -7.58039063 25.46617188 -7 25 C-9.10145696 23.65512082 -9.10145696 23.65512082 -11.8984375 24.9609375 C-13.04570312 25.42757812 -14.19296875 25.89421875 -15.375 26.375 C-20.96703697 28.63453638 -25.21532617 30.1419036 -31.25 30.0625 C-32.14203125 30.05347656 -33.0340625 30.04445313 -33.953125 30.03515625 C-34.62859375 30.02355469 -35.3040625 30.01195313 -36 30 C-37 27 -37 27 -36.36328125 25.1328125 C-30.65646892 14.22834582 -30.65646892 14.22834582 -24 12 C-22.0887183 11.71170611 -20.17108011 11.46345335 -18.25 11.25 C-11.25867136 10.16380098 -5.70554298 7.4015999 -1.25390625 1.8046875 C-0.63322266 0.91136719 -0.63322266 0.91136719 0 0 Z M0 2 C-0.680625 2.9075 -1.36125 3.815 -2.0625 4.75 C-6.839376 10.63455739 -13.51926061 11.95568388 -20.6875 13.3125 C-26.01664952 14.44556684 -28.75748995 15.76655729 -31.94921875 20.18359375 C-34.38811558 24.30886599 -34.38811558 24.30886599 -35 29 C-18.2059755 28.27140892 -2.41813812 20.01609027 10 9 C8.52440331 4.57320993 6.09942632 4.08567304 2 2 C1.34 2 0.68 2 0 2 Z " fill="#232E43" transform="translate(166,43)"/>
<path d="M0 0 C1.27685165 0.00222061 2.55370331 0.00444122 3.86924744 0.00672913 C4.57165054 0.0065831 5.27405365 0.00643707 5.9977417 0.00628662 C8.32985983 0.00698579 10.66189904 0.01477835 12.9940033 0.02259827 C14.60683142 0.02446243 16.21966012 0.02588634 17.83248901 0.02688599 C22.08550062 0.03071129 26.33847828 0.04054167 30.59147644 0.05158997 C34.92812135 0.06180383 39.26477171 0.06638355 43.60142517 0.07142639 C52.11641474 0.08216393 60.63137667 0.09924049 69.14634705 0.12025452 C65.52205259 2.53645082 63.87496343 2.36324386 59.56358337 2.3473053 C58.55199803 2.3476669 58.55199803 2.3476669 57.51997662 2.34803581 C55.33930914 2.3465443 53.15898453 2.33131936 50.9783783 2.31556702 C49.63117131 2.31262607 48.28396205 2.31058595 46.93675232 2.3094635 C41.94408235 2.29898214 36.95146132 2.27105968 31.95884705 2.24525452 C15.22165955 2.18337952 15.22165955 2.18337952 -1.85365295 2.12025452 C-1.85365295 26.87025452 -1.85365295 51.62025452 -1.85365295 77.12025452 C1.11634705 76.62525452 1.11634705 76.62525452 4.14634705 76.12025452 C5.61048566 76.00795651 7.07719162 75.92399785 8.54478455 75.87416077 C9.34642029 75.8426593 10.14805603 75.81115784 10.97398376 75.77870178 C12.23492859 75.73120789 12.23492859 75.73120789 13.52134705 75.68275452 C28.62683563 75.22890304 28.62683563 75.22890304 43.28697205 72.06166077 C46.0805473 71.14191809 48.10576291 70.90690348 51.02134705 70.99525452 C51.80251892 71.01330139 52.5836908 71.03134827 53.38853455 71.04994202 C53.96861267 71.07314514 54.5486908 71.09634827 55.14634705 71.12025452 C55.14634705 71.78025452 55.14634705 72.44025452 55.14634705 73.12025452 C42.17038657 75.43270195 29.22991082 77.39883692 16.08384705 78.43275452 C15.00957458 78.52089417 13.93530212 78.60903381 12.82847595 78.69984436 C11.80802185 78.77283752 10.78756775 78.84583069 9.7361908 78.92103577 C8.40382385 79.01638611 8.40382385 79.01638611 7.04454041 79.11366272 C4.59901777 79.11922494 2.38088825 78.93720952 -0.03479004 78.6206665 C-1.2950148 78.45553055 -2.55523956 78.29039459 -3.85365295 78.12025452 C-3.87677705 68.09797688 -3.89456838 58.07570555 -3.90546513 48.05340672 C-3.91069381 43.40014265 -3.91779118 38.74689678 -3.92909241 34.09364319 C-3.93992182 29.60680906 -3.9459299 25.11999247 -3.9485302 20.63314629 C-3.95038435 18.91745159 -3.95400478 17.2017579 -3.95938301 15.48607063 C-3.96659417 13.09140539 -3.96764387 10.69681356 -3.96717834 8.30213928 C-3.97077362 7.58572769 -3.9743689 6.8693161 -3.97807312 6.13119507 C-3.96544557 0.16710607 -3.96544557 0.16710607 0 0 Z " fill="#222A42" transform="translate(461.85365295410156,44.87974548339844)"/>
<path d="M0 0 C2.39611639 0.31044024 4.79187835 0.62328358 7.1875 0.9375 C7.86103516 1.02451172 8.53457031 1.11152344 9.22851562 1.20117188 C12.86240055 1.67978111 16.40058796 2.28011759 20 3 C20 48.87 20 94.74 20 142 C3.17 142 -13.66 142 -31 142 C-31 141.67 -31 141.34 -31 141 C-22.45854341 140.04906249 -13.96139165 139.89021623 -5.375 139.875 C-3.80310913 139.86823242 -3.80310913 139.86823242 -2.19946289 139.86132812 C-1.17199951 139.86326172 -0.14453613 139.86519531 0.9140625 139.8671875 C1.8210791 139.86831543 2.7280957 139.86944336 3.66259766 139.87060547 C8.45293735 140.05633188 13.22574897 140.56597718 18 141 C17.67 96.12 17.34 51.24 17 5 C9.575 4.01 9.575 4.01 2 3 C2 2.34 2 1.68 2 1 C1.34 0.67 0.68 0.34 0 0 Z " fill="#620E1F" transform="translate(425,122)"/>
<path d="M0 0 C0 10.56 0 21.12 0 32 C-15.78147289 30.87275194 -15.78147289 30.87275194 -21.76953125 29.765625 C-22.73754417 29.58821777 -22.73754417 29.58821777 -23.72511292 29.40722656 C-25.7561721 29.03099279 -27.78440904 28.64189404 -29.8125 28.25 C-30.50845276 28.11783081 -31.20440552 27.98566162 -31.92144775 27.8494873 C-60.61976155 22.38023845 -60.61976155 22.38023845 -65 18 C-64.39752441 17.96036133 -63.79504883 17.92072266 -63.17431641 17.87988281 C-49.78427326 16.95993678 -37.00512088 15.34463783 -24 12 C-24 12.66 -24 13.32 -24 14 C-24.9590625 14.8971875 -24.9590625 14.8971875 -25.9375 15.8125 C-28.25174456 18.26700181 -28.63391473 19.70523261 -29 23 C-30.65 23.33 -32.3 23.66 -34 24 C-33.40960937 24.14566406 -32.81921875 24.29132813 -32.2109375 24.44140625 C-30.3420559 24.91357952 -28.48228319 25.421588 -26.625 25.9375 C-21.60111967 27.20291347 -16.49606922 27.84407085 -11.3671875 28.53515625 C-8.23653482 28.96734612 -5.11734414 29.48044264 -2 30 C-2 21.75 -2 13.5 -2 5 C-2.66 5 -3.32 5 -4 5 C-4.99 4.67 -5.98 4.34 -7 4 C-2.25 0 -2.25 0 0 0 Z " fill="#26334E" transform="translate(729,92)"/>
<path d="M0 0 C5.04323834 0.72046262 8.05801639 1.20188854 12.49609375 3.06640625 C13.46611328 3.46923828 14.43613281 3.87207031 15.43554688 4.28710938 C16.92151367 4.91842773 16.92151367 4.91842773 18.4375 5.5625 C19.45521484 5.98724609 20.47292969 6.41199219 21.52148438 6.84960938 C24.01745631 7.89252723 26.51005214 8.94279942 29 10 C28.01 10.66 27.02 11.32 26 12 C24.02 11.01 22.04 10.02 20 9 C20 9.66 20 10.32 20 11 C17.69 11.33 15.38 11.66 13 12 C13.33 10.35 13.66 8.7 14 7 C12.453125 6.2884375 12.453125 6.2884375 10.875 5.5625 C10.29492188 5.29566406 9.71484375 5.02882813 9.1171875 4.75390625 C6.41442156 3.7214961 6.41442156 3.7214961 1 3 C1 58.11 1 113.22 1 170 C31.69 170 62.38 170 94 170 C94 170.33 94 170.66 94 171 C62.98 171 31.96 171 0 171 C0 114.57 0 58.14 0 0 Z " fill="#611728" transform="translate(28,90)"/>
<path d="M0 0 C0 54.78 0 109.56 0 166 C-37.29 166 -74.58 166 -113 166 C-113 165.67 -113 165.34 -113 165 C-76.04 165 -39.08 165 -1 165 C-1 111.54 -1 58.08 -1 3 C-2.65 3 -4.3 3 -6 3 C-2.25 0 -2.25 0 0 0 Z " fill="#651427" transform="translate(586,99)"/>
<path d="M0 0 C0.66 0 1.32 0 2 0 C2.33 24.75 2.66 49.5 3 75 C24.13089122 73.64968935 24.13089122 73.64968935 44.8125 70.5 C45.92818359 70.28730469 47.04386719 70.07460937 48.19335938 69.85546875 C53.27368098 68.86433479 58.11028402 67.72206475 63 66 C65.875 65.875 65.875 65.875 68 66 C68 66.66 68 67.32 68 68 C45.15627259 73.83508255 24.04163843 76 0 76 C0 50.92 0 25.84 0 0 Z " fill="#1C2434" transform="translate(743,48)"/>
<path d="M0 0 C0.66 0.33 1.32 0.66 2 1 C2.74609375 3.859375 2.74609375 3.859375 3.4375 7.75 C3.56527832 8.45157227 3.69305664 9.15314453 3.82470703 9.87597656 C4.55616826 14.00985437 5.16289685 18.14692479 5.68359375 22.3125 C7.63697605 38.62809201 7.63697605 38.62809201 15.3125 52.9375 C22.65215955 58.57026198 27.61140669 61.18054987 37 61 C37.20753906 60.34773438 37.41507813 59.69546875 37.62890625 59.0234375 C39.45803561 53.83452661 41.25427616 49.52949764 45.67578125 46.10546875 C49.77460131 44.15594593 54.11621519 43.89092139 58.59765625 43.51953125 C62.32888997 42.94977914 64.81138259 42.00951716 68 40 C69.52280858 38.0260679 69.52280858 38.0260679 70.375 35.8125 C70.85066406 34.73935547 70.85066406 34.73935547 71.3359375 33.64453125 C71.55507812 33.10183594 71.77421875 32.55914062 72 32 C73 35 73 35 71.5 38.4375 C69.08071861 42.28561872 66.33414859 44.58922009 62 46 C58.43501982 46.5339256 54.89872948 46.93565668 51.3046875 47.21484375 C47.12648879 48.20753635 45.64631958 49.65826311 43 53 C41.58376893 55.85010138 41.58376893 55.85010138 40.6875 58.8125 C40.19830078 60.27623047 40.19830078 60.27623047 39.69921875 61.76953125 C39.46847656 62.50558594 39.23773438 63.24164063 39 64 C29.80327399 64.59978648 22.12419886 62.01802401 15.04296875 56.08984375 C7.90425895 48.78733946 5.28239676 40.03939245 3.9296875 30.11328125 C3.75566406 28.84548828 3.58164063 27.57769531 3.40234375 26.27148438 C3.22832031 24.96501953 3.05429688 23.65855469 2.875 22.3125 C2.69181203 20.9810639 2.50822152 19.64968312 2.32421875 18.31835938 C1 8.55597979 1 8.55597979 1 4 C-4.53819723 8.56086831 -7.02275522 14.58511177 -10 21 C-10.66 21 -11.32 21 -12 21 C-10.71961068 15.50062294 -8.75889175 11.65846362 -5.4375 7.125 C-5.02564453 6.54492188 -4.61378906 5.96484375 -4.18945312 5.3671875 C-1.25232781 1.25232781 -1.25232781 1.25232781 0 0 Z " fill="#1B2438" transform="translate(89,7)"/>
<path d="M0 0 C0.66 0.66 1.32 1.32 2 2 C1.32904297 2.72703125 1.32904297 2.72703125 0.64453125 3.46875 C-3.47777883 8.03932834 -6.9238704 12.66993213 -10 18 C-4.39487642 16.6406173 -4.39487642 16.6406173 -0.35546875 12.796875 C0.86300452 10.56359258 1.98332096 8.33151876 3 6 C3.66 6 4.32 6 5 6 C6.3364486 12.19626168 6.3364486 12.19626168 4.875 15.6875 C2.34320789 18.8100436 -0.39533141 21.1976657 -4 23 C-10.9968652 23.45141066 -10.9968652 23.45141066 -14.5 21.875 C-16.66865665 19.16417918 -16.33240357 17.40713658 -16 14 C-12.17012827 7.13475122 -7.23866619 2.84376172 0 0 Z " fill="#172033" transform="translate(204,80)"/>
<path d="M0 0 C0.66 0 1.32 0 2 0 C2 15.84 2 31.68 2 48 C-2.62 48.99 -7.24 49.98 -12 51 C-15.76879876 52.29037028 -15.76879876 52.29037028 -18.875 53.8125 C-25.86292224 56.97314272 -32.9501552 59.68333972 -40.14746094 62.31835938 C-41.88568964 62.95793957 -43.6188282 63.61130575 -45.3515625 64.265625 C-46.32867188 64.63171875 -47.30578125 64.9978125 -48.3125 65.375 C-49.15425781 65.69210938 -49.99601563 66.00921875 -50.86328125 66.3359375 C-53 67 -53 67 -56 67 C-56 66.34 -56 65.68 -56 65 C-55.31035156 64.75765625 -54.62070312 64.5153125 -53.91015625 64.265625 C-47.11945965 61.84370303 -40.37320233 59.33180515 -34 55.93359375 C-31.93700002 54.97059181 -30.17519179 54.56811673 -27.9375 54.1875 C-23.09328756 53.19299281 -18.91259114 51.27639713 -14.48046875 49.12109375 C-9.15215214 46.71286246 -6.40202223 47 0 47 C0 31.49 0 15.98 0 0 Z " fill="#27263A" transform="translate(868,48)"/>
<path d="M0 0 C0.99 0.495 0.99 0.495 2 1 C2.59355614 3.64860427 2.74209269 6.29197322 3 9 C4.32 9 5.64 9 7 9 C7 9.99 7 10.98 7 12 C7.99 12 8.98 12 10 12 C10.67305018 13.60149886 11.33822227 15.20631029 12 16.8125 C12.37125 17.70582031 12.7425 18.59914063 13.125 19.51953125 C14 22 14 22 14 25 C11 27 11 27 8 28 C11.13922331 32.52048157 14.21495828 34.51545911 19 37 C19 37.66 19 38.32 19 39 C11.86600483 36.83818328 6.48537804 31.45440378 3 25 C1.32198389 19.28368137 0.62193849 13.93681298 0.375 8 C0.33632812 7.22527344 0.29765625 6.45054688 0.2578125 5.65234375 C0.16478643 3.76856585 0.08136825 1.88431744 0 0 Z " fill="#223049" transform="translate(86,35)"/>
<path d="M0 0 C4.22151156 0.86153297 5.60819464 2.08791287 8.0625 5.625 C8.82673647 8.80261479 8.87522806 11.45421589 8.0625 14.625 C6.27029087 17.24803455 4.94435739 17.99375997 2.0625 19.625 C-1.50504318 19.79488301 -2.59650552 18.92913021 -5.25 16.5625 C-7.43290279 12.76263218 -7.78411635 9.90991541 -6.9375 5.625 C-4.98833781 2.02654672 -4.0247282 0.85632515 0 0 Z M0.0625 5.625 C-0.5975 6.285 -1.2575 6.945 -1.9375 7.625 C-1.61551034 10.72426819 -1.61551034 10.72426819 -0.9375 13.625 C0.0525 13.625 1.0425 13.625 2.0625 13.625 C2.83206136 11.27966049 2.83206136 11.27966049 3.0625 8.625 C1.72871425 6.7895201 1.72871425 6.7895201 0.0625 5.625 Z " fill="#232C43" transform="translate(236.9375,35.375)"/>
<path d="M0 0 C1.4453125 1.02734375 1.4453125 1.02734375 3 3 C3.41237909 5.55849281 3.68537043 7.98899826 3.875 10.5625 C5.02267932 21.69211707 8.4660513 28.38633272 17.20703125 35.6015625 C17.79871094 36.06304687 18.39039063 36.52453125 19 37 C16 38 16 38 13.6953125 36.99609375 C6.18860847 32.4441562 1.10431821 28.38213335 -1.5 19.7109375 C-2.67774961 13.32532633 -3.69055099 5.53582648 0 0 Z " fill="#1C2436" transform="translate(210,48)"/>
<path d="M0 0 C8.57142857 2.85714286 8.57142857 2.85714286 12 7 C8.49099574 16.03772608 -4.35466639 21.61564419 -12.6796875 25.55859375 C-20.64202965 29.01518699 -27.30221276 30.49966012 -36 30 C-37 27 -37 27 -36.36328125 25.1328125 C-30.65646892 14.22834582 -30.65646892 14.22834582 -24 12 C-22.0887183 11.71170611 -20.17108011 11.46345335 -18.25 11.25 C-11.25867136 10.16380098 -5.70554298 7.4015999 -1.25390625 1.8046875 C-0.63322266 0.91136719 -0.63322266 0.91136719 0 0 Z M0 2 C-0.680625 2.9075 -1.36125 3.815 -2.0625 4.75 C-6.839376 10.63455739 -13.51926061 11.95568388 -20.6875 13.3125 C-26.01664952 14.44556684 -28.75748995 15.76655729 -31.94921875 20.18359375 C-34.38811558 24.30886599 -34.38811558 24.30886599 -35 29 C-18.2059755 28.27140892 -2.41813812 20.01609027 10 9 C8.52440331 4.57320993 6.09942632 4.08567304 2 2 C1.34 2 0.68 2 0 2 Z " fill="#1C2538" transform="translate(166,43)"/>
<path d="M0 0 C7.02566296 2.97469559 12.21502118 6.68900676 17.74609375 11.92578125 C19.55774848 13.59300597 21.2386051 14.95050064 23.3125 16.25 C26 18 26 18 28.25 20.3125 C34.30615881 26.23101883 41.47733393 31.53057482 50 33 C50.66 32.67 51.32 32.34 52 32 C50.948125 31.566875 49.89625 31.13375 48.8125 30.6875 C45.70539018 29.36129459 42.85481805 27.8167024 40 26 C40.33 25.34 40.66 24.68 41 24 C41.52207031 24.31453125 42.04414062 24.6290625 42.58203125 24.953125 C48.50402874 28.39638799 54.51109305 30.82894515 61 33 C61 34.65 61 36.3 61 38 C55.39735073 39.86754976 50.01150663 36.91997213 44.83984375 34.5546875 C37.7195885 30.9054506 31.6740312 26.64308757 25.64013672 21.41601562 C22.22802453 18.4701611 18.77118888 15.57836122 15.3125 12.6875 C14.61157227 12.0886499 13.91064453 11.4897998 13.18847656 10.87280273 C8.69380789 7.1126158 4.33872591 4.4266936 -1 2 C-0.67 1.34 -0.34 0.68 0 0 Z " fill="#192030" transform="translate(69,74)"/>
<path d="M0 0 C1.26457031 -0.02835938 2.52914063 -0.05671875 3.83203125 -0.0859375 C7.1875 0.375 7.1875 0.375 9.63671875 2.2734375 C11.1875 4.375 11.1875 4.375 11.1875 6.375 C10.1975 6.705 9.2075 7.035 8.1875 7.375 C8.1875 8.035 8.1875 8.695 8.1875 9.375 C6.8675 9.375 5.5475 9.375 4.1875 9.375 C4.1875 8.715 4.1875 8.055 4.1875 7.375 C-2.0825 7.375 -8.3525 7.375 -14.8125 7.375 C-14.4825 6.385 -14.1525 5.395 -13.8125 4.375 C-14.8025 3.715 -15.7925 3.055 -16.8125 2.375 C-11.19597605 0.79843187 -5.82932092 0.11328694 0 0 Z " fill="#2A3A54" transform="translate(259.8125,12.625)"/>
<path d="M0 0 C0.33 0.66 0.66 1.32 1 2 C3.16874252 1.49396008 4.99967627 1.00016187 7 0 C7 0.66 7 1.32 7 2 C9.97 2.66 12.94 3.32 16 4 C12.22903699 6.51397534 8.40314566 7.70348578 4.125 9.125 C3.32191406 9.40214844 2.51882813 9.67929687 1.69140625 9.96484375 C-2.30326795 11.30078916 -5.72717016 12.39787484 -10 12 C-3.84965831 3.55353075 -3.84965831 3.55353075 0 0 Z " fill="#7E0821" transform="translate(618,256)"/>
<path d="M0 0 C0 15.18 0 30.36 0 46 C-10.56 46 -21.12 46 -32 46 C-32 45.67 -32 45.34 -32 45 C-16.655 44.505 -16.655 44.505 -1 44 C-1.495 23.21 -1.495 23.21 -2 2 C-10.75170784 2.59542106 -10.75170784 2.59542106 -18 6 C-19.41327947 6.15620555 -20.8335459 6.25056173 -22.25390625 6.31640625 C-23.10791016 6.35830078 -23.96191406 6.40019531 -24.84179688 6.44335938 C-25.73962891 6.48267578 -26.63746094 6.52199219 -27.5625 6.5625 C-28.46419922 6.60568359 -29.36589844 6.64886719 -30.29492188 6.69335938 C-32.52978485 6.79978142 -34.76476308 6.90179988 -37 7 C-37 6.67 -37 6.34 -37 6 C-32.3743614 5.14097459 -27.74789504 4.28661079 -23.12060547 3.43652344 C-21.5471279 3.14678318 -19.97388258 2.85577864 -18.40087891 2.56347656 C-16.13764608 2.14314147 -13.87361236 1.72738534 -11.609375 1.3125 C-10.90818542 1.18125732 -10.20699585 1.05001465 -9.48455811 0.91479492 C-6.23577093 0.3238361 -3.31961166 0 0 0 Z " fill="#5A0D1F" transform="translate(300,93)"/>
<path d="M0 0 C1 1 1 1 1.12025452 3.09437561 C1.1169236 4.47670631 1.1169236 4.47670631 1.11352539 5.88696289 C1.11344986 6.92796646 1.11337433 7.96897003 1.11329651 9.04151917 C1.10813522 10.1737944 1.10297394 11.30606964 1.09765625 12.47265625 C1.0962413 13.62543564 1.09482635 14.77821503 1.09336853 15.96592712 C1.08775005 19.66481064 1.07519442 23.36363464 1.0625 27.0625 C1.05748738 29.56315017 1.05292406 32.06380129 1.04882812 34.56445312 C1.03777462 40.70965588 1.02101852 46.85482369 1 53 C-2.10121711 54.17461555 -5.20642241 55.33830456 -8.3125 56.5 C-9.19357422 56.83386719 -10.07464844 57.16773438 -10.98242188 57.51171875 C-12.25375977 57.98544922 -12.25375977 57.98544922 -13.55078125 58.46875 C-14.33106689 58.76201172 -15.11135254 59.05527344 -15.9152832 59.35742188 C-18 60 -18 60 -21 60 C-21 59.34 -21 58.68 -21 58 C-19.23141309 57.32739649 -17.46003984 56.66211605 -15.6875 56 C-14.70136719 55.62875 -13.71523438 55.2575 -12.69921875 54.875 C-10 54 -10 54 -7 54 C-7 53.34 -7 52.68 -7 52 C-5.02 51.34 -3.04 50.68 -1 50 C-0.67 34.16 -0.34 18.32 0 2 C-9.24 2 -18.48 2 -28 2 C-28 1.67 -28 1.34 -28 1 C-24.64596947 0.83051801 -21.29175736 0.66492694 -17.9375 0.5 C-16.99455078 0.45230469 -16.05160156 0.40460937 -15.08007812 0.35546875 C-4.67324489 -0.15218165 -4.67324489 -0.15218165 0 0 Z " fill="#222E42" transform="translate(585,45)"/>
<path d="M0 0 C1.07121094 0.268125 2.14242187 0.53625 3.24609375 0.8125 C3.97940918 0.99554688 4.71272461 1.17859375 5.46826172 1.3671875 C7.2332946 1.80836062 8.99791198 2.25119793 10.76220703 2.6953125 C13.86026135 3.47199773 16.96117651 4.23648099 20.0625 5 C21.09310547 5.26039062 22.12371094 5.52078125 23.18554688 5.7890625 C37.30309087 9.24214923 50.98343703 10.29450223 65.4375 10.125 C66.95897836 10.11493151 68.48046331 10.10581262 70.00195312 10.09765625 C73.6681096 10.07599182 77.33400983 10.04168449 81 10 C81 10.66 81 11.32 81 12 C77.12761036 13.93619482 72.32013051 13.19075557 68.0625 13.1875 C66.44335693 13.1862915 66.44335693 13.1862915 64.79150391 13.18505859 C55.09280695 13.11211455 45.6030522 12.30522671 36 11 C34.92661377 10.85594727 34.92661377 10.85594727 33.83154297 10.70898438 C29.88235649 10.17331617 25.93927779 9.60406544 22 9 C22 8.34 22 7.68 22 7 C20.1128125 6.8453125 20.1128125 6.8453125 18.1875 6.6875 C12.6911194 6.06806663 7.15012189 5.06004875 2 3 C1.34 2.01 0.68 1.02 0 0 Z " fill="#6A1225" transform="translate(72,106)"/>
<path d="M0 0 C0.33 0 0.66 0 1 0 C2.32286246 4.96073422 2.08893197 9.91111512 2 15 C3.19496094 14.76603516 3.19496094 14.76603516 4.4140625 14.52734375 C8.74080654 13.89105786 13.00925611 13.72693716 17.375 13.5625 C32.48048858 13.10864853 32.48048858 13.10864853 47.140625 9.94140625 C49.93420025 9.02166358 51.95941586 8.78664897 54.875 8.875 C55.65617188 8.89304687 56.43734375 8.91109375 57.2421875 8.9296875 C57.82226562 8.95289062 58.40234375 8.97609375 59 9 C59 9.66 59 10.32 59 11 C46.02403953 13.31244743 33.08356378 15.2785824 19.9375 16.3125 C18.86322754 16.40063965 17.78895508 16.4887793 16.68212891 16.57958984 C10.93338996 16.9907976 5.68820619 16.94917246 0 16 C0 10.72 0 5.44 0 0 Z " fill="#232136" transform="translate(458,107)"/>
<path d="M0 0 C5.04323834 0.72046262 8.05801639 1.20188854 12.49609375 3.06640625 C13.46611328 3.46923828 14.43613281 3.87207031 15.43554688 4.28710938 C16.92151367 4.91842773 16.92151367 4.91842773 18.4375 5.5625 C19.45521484 5.98724609 20.47292969 6.41199219 21.52148438 6.84960938 C24.01745631 7.89252723 26.51005214 8.94279942 29 10 C28.01 10.66 27.02 11.32 26 12 C24.02 11.01 22.04 10.02 20 9 C20 9.66 20 10.32 20 11 C17.69 11.33 15.38 11.66 13 12 C13.33 10.35 13.66 8.7 14 7 C12.453125 6.2884375 12.453125 6.2884375 10.875 5.5625 C10.29492188 5.29566406 9.71484375 5.02882813 9.1171875 4.75390625 C6.41442156 3.7214961 6.41442156 3.7214961 1 3 C1 19.5 1 36 1 53 C0.67 53 0.34 53 0 53 C0 35.51 0 18.02 0 0 Z " fill="#640E23" transform="translate(28,90)"/>
<path d="M0 0 C1.75129657 1.10210905 3.50098464 2.20677432 5.25 3.3125 C6.22453125 3.92738281 7.1990625 4.54226562 8.203125 5.17578125 C10.54733713 6.70475759 12.78784032 8.28820977 15 10 C9.25 10.125 9.25 10.125 7 9 C7 9.66 7 10.32 7 11 C6.34 11 5.68 11 5 11 C3.375 8.5 3.375 8.5 2 6 C1.9494037 12.37203593 1.91431043 18.7440203 1.89013672 25.11621094 C1.88006211 27.28517594 1.86640202 29.45412731 1.84912109 31.62304688 C1.82493677 34.73571126 1.81353168 37.84819651 1.8046875 40.9609375 C1.79436493 41.934935 1.78404236 42.9089325 1.77340698 43.91244507 C1.77325592 44.81322784 1.77310486 45.71401062 1.77294922 46.64208984 C1.768508 47.43706879 1.76406677 48.23204773 1.75949097 49.05111694 C1.82631697 51.23643491 1.82631697 51.23643491 4 53 C4.99 52.505 4.99 52.505 6 52 C6 53.65 6 55.3 6 57 C4.68 57.66 3.36 58.32 2 59 C-0.29299282 52.62484522 -0.25836904 46.66886264 -0.1953125 39.94140625 C-0.1924826 38.79711655 -0.18965271 37.65282684 -0.18673706 36.47386169 C-0.17558578 32.83663257 -0.15049014 29.19965409 -0.125 25.5625 C-0.11496369 23.08919628 -0.10583898 20.61588868 -0.09765625 18.14257812 C-0.07566296 12.09496727 -0.04223564 6.04750155 0 0 Z " fill="#721328" transform="translate(600,92)"/>
<path d="M0 0 C0 0.66 0 1.32 0 2 C-7.92806125 4.38318475 -15.79962224 5.89184084 -24 7 C-23.67 7.99 -23.34 8.98 -23 10 C-19.48809191 11.22969878 -19.48809191 11.22969878 -16 12 C-16 12.66 -16 13.32 -16 14 C-18.66835522 13.4026523 -21.33449363 12.79732883 -24 12.1875 C-24.74378906 12.02185547 -25.48757813 11.85621094 -26.25390625 11.68554688 C-31.36331217 10.50816203 -36.12507025 8.93335282 -41 7 C-41 6.67 -41 6.34 -41 6 C-40.38705078 5.96036133 -39.77410156 5.92072266 -39.14257812 5.87988281 C-27.41461845 5.08603064 -16.22131088 3.99654592 -4.88671875 0.8046875 C-2 0 -2 0 0 0 Z " fill="#1A2132" transform="translate(705,104)"/>
<path d="M0 0 C0.66 0.66 1.32 1.32 2 2 C-5.05006082 6.70004055 -12.54284814 10.38426286 -20.14941406 14.08300781 C-21.86537608 14.93329189 -23.55523761 15.83570599 -25.2421875 16.7421875 C-28 18 -28 18 -32 18 C-32 16.68 -32 15.36 -32 14 C-26.25 13 -26.25 13 -24 13 C-22.36323743 11.0399719 -22.36323743 11.0399719 -21 9 C-18.525 9.99 -18.525 9.99 -16 11 C-16.04125 10.05125 -16.0825 9.1025 -16.125 8.125 C-16 5 -16 5 -14 3 C-11.49642139 3.8345262 -9.33214148 4.79371992 -7 6 C-6.773125 5.195625 -6.54625 4.39125 -6.3125 3.5625 C-5 1 -5 1 -2.5 0.0625 C-1.675 0.041875 -0.85 0.02125 0 0 Z " fill="#720A20" transform="translate(673,239)"/>
<path d="M0 0 C17.99260544 4.7448854 32.05125862 14.15604152 45.7734375 26.671875 C49.35053813 29.83869886 53.14462994 32.72043149 56.953125 35.6015625 C49.67646385 35.6015625 42.73350957 27.46660144 37.765625 22.6640625 C26.06605173 11.80017303 9.70480831 3.93643591 -6.046875 1.6015625 C-3.046875 -0.3984375 -3.046875 -0.3984375 0 0 Z " fill="#192336" transform="translate(52.046875,61.3984375)"/>
<path d="M0 0 C3.64675212 0.47234038 7.29221071 0.95401006 10.9375 1.4375 C11.97841797 1.57220703 13.01933594 1.70691406 14.09179688 1.84570312 C15.08115234 1.97783203 16.07050781 2.10996094 17.08984375 2.24609375 C18.46450806 2.42676392 18.46450806 2.42676392 19.86694336 2.61108398 C22 3 22 3 23 4 C23.10130656 6.85187534 23.1396732 9.6789754 23.1328125 12.53125 C23.13424759 13.82887268 23.13424759 13.82887268 23.13571167 15.15270996 C23.13639409 16.99210685 23.13453551 18.83150613 23.13037109 20.67089844 C23.12507529 23.46034321 23.13028691 26.24962312 23.13671875 29.0390625 C23.13605697 30.82812535 23.13477374 32.6171881 23.1328125 34.40625 C23.13483673 35.23161255 23.13686096 36.0569751 23.13894653 36.90734863 C23.1174499 42.3420832 22.67986517 47.60698808 22 53 C21.67 53 21.34 53 21 53 C20.67 37.16 20.34 21.32 20 5 C13.4 4.01 6.8 3.02 0 2 C0 1.34 0 0.68 0 0 Z " fill="#641326" transform="translate(706,122)"/>
<path d="M0 0 C0 0.66 0 1.32 0 2 C-22.78353857 7.81970822 -44.43102253 10.71321394 -68 10 C-67.34 9.67 -66.68 9.34 -66 9 C-65.67 8.34 -65.34 7.68 -65 7 C-65 7.66 -65 8.32 -65 9 C-50.87296121 8.28161896 -36.97986595 7.10149221 -23.0625 4.5 C-21.91483154 4.28641846 -20.76716309 4.07283691 -19.5847168 3.8527832 C-14.08174341 2.89015702 -14.08174341 2.89015702 -8.90014648 0.93164062 C-5.98296113 -0.49865352 -3.18951377 -0.12267361 0 0 Z " fill="#2A2438" transform="translate(811,114)"/>
<path d="M0 0 C0.33 0 0.66 0 1 0 C1 5.28 1 10.56 1 16 C11.89 16 22.78 16 34 16 C33.505 8.575 33.505 8.575 33 1 C33.66 0.67 34.32 0.34 35 0 C35 5.61 35 11.22 35 17 C29.78713477 18.48939007 27.08010969 19.24713934 22.0234375 19.16015625 C20.940625 19.14919922 19.8578125 19.13824219 18.7421875 19.12695312 C17.07542969 19.09504883 17.07542969 19.09504883 15.375 19.0625 C13.15371261 19.02795233 10.93235079 18.99783934 8.7109375 18.97265625 C7.73431152 18.95468994 6.75768555 18.93672363 5.75146484 18.91821289 C3.05255046 18.99843794 0.62529217 19.38958518 -2 20 C-2 17 -2 17 -1 14 C-0.77439324 11.60745424 -0.59151405 9.21071877 -0.4375 6.8125 C-0.35371094 5.54019531 -0.26992188 4.26789063 -0.18359375 2.95703125 C-0.12300781 1.98121094 -0.06242187 1.00539062 0 0 Z " fill="#6B0B21" transform="translate(365,146)"/>
<path d="M0 0 C6.875 0.875 6.875 0.875 8 2 C9.09475513 8.85954161 7.78500878 13.63498683 3.9765625 19.34765625 C-1.43369074 26.6076601 -6.90003043 33.33447195 -14 39 C-14.66 38.67 -15.32 38.34 -16 38 C-15.443125 37.48953125 -14.88625 36.9790625 -14.3125 36.453125 C-8.18309101 30.61362049 -3.21445681 24.36094499 1 17 C1 16.34 1 15.68 1 15 C1.66 15 2.32 15 3 15 C3.36504603 13.41913952 3.71660506 11.83516093 4.0625 10.25 C4.25972656 9.36828125 4.45695312 8.4865625 4.66015625 7.578125 C4.99825872 5.01320972 4.81158635 3.42908361 4 1 C2.68 0.67 1.36 0.34 0 0 Z " fill="#2F3A54" transform="translate(271,38)"/>
<path d="M0 0 C0 10.56 0 21.12 0 32 C-8.96396387 31.35971687 -17.46765014 30.6311933 -26.25 29.0625 C-27.26707031 28.89298828 -28.28414062 28.72347656 -29.33203125 28.54882812 C-30.30011719 28.37931641 -31.26820313 28.20980469 -32.265625 28.03515625 C-33.12961914 27.8844165 -33.99361328 27.73367676 -34.88378906 27.57836914 C-37 27 -37 27 -39 25 C-33.83862413 24.78494267 -29.383316 25.0038027 -24.37109375 26.42578125 C-20.09371003 27.46165507 -15.72480813 27.94799356 -11.3671875 28.53515625 C-8.23653482 28.96734612 -5.11734414 29.48044264 -2 30 C-2 21.75 -2 13.5 -2 5 C-2.66 5 -3.32 5 -4 5 C-4.99 4.67 -5.98 4.34 -7 4 C-2.25 0 -2.25 0 0 0 Z " fill="#282435" transform="translate(729,92)"/>
<path d="M0 0 C-0.61488281 0.32613281 -1.22976563 0.65226562 -1.86328125 0.98828125 C-2.67152344 1.42527344 -3.47976563 1.86226562 -4.3125 2.3125 C-5.11300781 2.74175781 -5.91351562 3.17101563 -6.73828125 3.61328125 C-9.02250381 4.89283846 -9.02250381 4.89283846 -10.66796875 6.66796875 C-11.10753906 7.10753906 -11.54710937 7.54710937 -12 8 C-12.66 8 -13.32 8 -14 8 C-16.02558881 11.34939881 -16.21738987 13.86962551 -16.125 17.75 C-16.10695313 18.73484375 -16.08890625 19.7196875 -16.0703125 20.734375 C-16.04710937 21.48203125 -16.02390625 22.2296875 -16 23 C-15.12988281 23.40605469 -15.12988281 23.40605469 -14.2421875 23.8203125 C-12.00274323 24.9985567 -10.14572521 26.35749041 -8.125 27.875 C-2.27990558 31.86963739 4.20363584 33.356498 11 35 C11 35.66 11 36.32 11 37 C0.88894798 35.14630713 -10.07843305 32.10279245 -17 24 C-19.33321029 20.23452201 -19.21672513 17.52062842 -18.5859375 13.23828125 C-16.80476984 6.4342208 -10.94220583 3.4224014 -5.3046875 0.00390625 C-3 -1 -3 -1 0 0 Z " fill="#1E2637" transform="translate(625,51)"/>
<path d="M0 0 C0.66 0.33 1.32 0.66 2 1 C1.52949219 1.43570313 1.05898437 1.87140625 0.57421875 2.3203125 C-3.20017626 5.93060338 -6.04395157 9.05234808 -8 14 C-8 14.66 -8 15.32 -8 16 C-2.21113503 15.85815743 -2.21113503 15.85815743 2.375 12.75 C3.87742668 10.20743177 5.04322888 7.79058242 6 5 C6.33 5 6.66 5 7 5 C7.375 8.1875 7.375 8.1875 7 12 C3.18225025 16.19021315 -0.30739701 18.06848315 -6 19 C-8.875 18.3125 -8.875 18.3125 -11 17 C-12 14 -12 14 -11.375 11.6875 C-8.7337168 6.52499193 -5.32547359 2.44683922 0 0 Z " fill="#2C3853" transform="translate(201,83)"/>
<path d="M0 0 C1.9691421 1.63574238 2.9104233 2.53103964 3.3984375 5.0859375 C3.34947406 9.86803374 3.31044654 13.28828722 0 17 C-9.79259106 25.33935266 -25.07738507 30.6626982 -38 30 C-35.07836907 27.07836907 -31.55168346 26.99501807 -27.625 26.25 C-19.19756963 24.52850214 -10.27447087 22.27447087 -4 16 C-3.01 15.67 -2.02 15.34 -1 15 C2.01898189 10.32057807 0.75011979 5.22042824 0 0 Z " fill="#1D2739" transform="translate(720,60)"/>
<path d="M0 0 C0.66 0.33 1.32 0.66 2 1 C2.62848572 3.47184335 3.13142133 5.86752593 3.5625 8.375 C3.69180908 9.09365234 3.82111816 9.81230469 3.9543457 10.55273438 C4.96363777 16.34373326 5.63940954 22.13107937 6 28 C5.34 28 4.68 28 4 28 C3.49515526 24.75073335 2.99697406 21.50047901 2.5 18.25 C2.35691406 17.32960938 2.21382812 16.40921875 2.06640625 15.4609375 C1.93105469 14.57148438 1.79570313 13.68203125 1.65625 12.765625 C1.53056641 11.94868164 1.40488281 11.13173828 1.27539062 10.29003906 C1 8 1 8 1 4 C-4.53819723 8.56086831 -7.02275522 14.58511177 -10 21 C-10.66 21 -11.32 21 -12 21 C-10.71961068 15.50062294 -8.75889175 11.65846362 -5.4375 7.125 C-5.02564453 6.54492188 -4.61378906 5.96484375 -4.18945312 5.3671875 C-1.25232781 1.25232781 -1.25232781 1.25232781 0 0 Z " fill="#1A2132" transform="translate(89,7)"/>
<path d="M0 0 C0.66 0 1.32 0 2 0 C2.3501786 4.37723256 2.39790125 7.86909321 -0.3828125 11.46484375 C-9.01372735 19.65795858 -23.20082709 24.62628995 -35.03515625 25.12890625 C-35.68355469 25.08636719 -36.33195312 25.04382813 -37 25 C-36.67 24.34 -36.34 23.68 -36 23 C-33.51884953 22.28939373 -31.07808589 21.6830748 -28.5625 21.125 C-18.79744006 18.80276833 -9.37910328 16.23441498 -2 9 C-0.10709303 5.84922582 0.20395155 3.67112781 0 0 Z " fill="#1C2538" transform="translate(436,62)"/>
<path d="M0 0 C-0.33 0.99 -0.66 1.98 -1 3 C-3.31808364 4.03485877 -5.65175298 5.0355414 -8 6 C-8.33 6.66 -8.66 7.32 -9 8 C-11.32156597 8.40729228 -13.6568787 8.74438677 -16 9 C-15.05953827 2.88699878 -15.05953827 2.88699878 -12.296875 0.57421875 C-7.66560584 -1.99772653 -4.94046922 -2.47023461 0 0 Z " fill="#2A3954" transform="translate(228,24)"/>
<path d="M0 0 C0 0.99 0 1.98 0 3 C-1.87109375 4.46484375 -1.87109375 4.46484375 -4.4375 5.9375 C-5.26121094 6.42089844 -6.08492188 6.90429688 -6.93359375 7.40234375 C-14.93429646 11.57086274 -22.11361856 13.8723804 -31.0625 15.25 C-32.64708008 15.50910156 -32.64708008 15.50910156 -34.26367188 15.7734375 C-36.84089524 16.19325669 -39.41935686 16.60184546 -42 17 C-41.505 15.515 -41.505 15.515 -41 14 C-39.31197266 13.77957031 -39.31197266 13.77957031 -37.58984375 13.5546875 C-23.79082371 11.59894468 -11.60814794 8.05463327 0 0 Z " fill="#1C2638" transform="translate(441,91)"/>
<path d="M0 0 C0.59425781 0.31453125 1.18851562 0.6290625 1.80078125 0.953125 C8.04458806 4.17698793 14.35051179 6.73715135 21 9 C21 10.32 21 11.64 21 13 C19.54119891 12.85892253 18.08296449 12.71197585 16.625 12.5625 C15.40683594 12.44068359 15.40683594 12.44068359 14.1640625 12.31640625 C12 12 12 12 10 11 C10 10.34 10 9.68 10 9 C10.66 8.67 11.32 8.34 12 8 C10.4221875 7.3503125 10.4221875 7.3503125 8.8125 6.6875 C5.70684705 5.34929182 2.7850364 3.94108598 0 2 C0 1.34 0 0.68 0 0 Z " fill="#222A41" transform="translate(109,98)"/>
<path d="M0 0 C4.81039649 0.493374 8.62545231 2.03130057 12.94921875 4.0625 C15.12280288 5.10028055 15.12280288 5.10028055 18 6 C18 5.34 18 4.68 18 4 C20.64 4 23.28 4 26 4 C26 4.99 26 5.98 26 7 C27.43750191 8.68798827 27.43750191 8.68798827 29 10 C18.70963713 9.19291272 9.02300528 5.95380682 0 1 C0 0.67 0 0.34 0 0 Z " fill="#202B41" transform="translate(332,77)"/>
<path d="M0 0 C-6.71752198 3.03408076 -12.62824975 5.44364149 -20 6 C-20.33 6.33 -20.66 6.66 -21 7 C-26.49463836 8.51076686 -31.38658553 9.47721433 -37 8 C-33.98107929 6.33645027 -31.19369224 5.48011272 -27.82421875 4.78125 C-26.33438477 4.46607422 -26.33438477 4.46607422 -24.81445312 4.14453125 C-23.78255859 3.93183594 -22.75066406 3.71914062 -21.6875 3.5 C-19.64928256 3.07510312 -17.61150929 2.64806915 -15.57421875 2.21875 C-14.61177246 2.01636719 -13.64932617 1.81398438 -12.65771484 1.60546875 C-10.38100333 1.08679848 -8.18350414 0.47874164 -5.95703125 -0.21875 C-3 -1 -3 -1 0 0 Z " fill="#671625" transform="translate(550,112)"/>
<path d="M0 0 C-0.66 0.99 -1.32 1.98 -2 3 C-5.05688477 3.41650391 -5.05688477 3.41650391 -8.94140625 3.4765625 C-9.96571999 3.49993179 -9.96571999 3.49993179 -11.01072693 3.52377319 C-13.19463961 3.57136183 -15.3782316 3.59907966 -17.5625 3.625 C-19.75011351 3.66144824 -21.93754349 3.70202601 -24.12498474 3.74765015 C-26.10734599 3.78737788 -28.08993688 3.81509758 -30.07250977 3.84228516 C-32.88985261 3.66717143 -32.88985261 3.66717143 -34 5 C-34.36760731 7.32817964 -34.70241581 9.6618385 -35 12 C-35.33 12 -35.66 12 -36 12 C-36.25 4.375 -36.25 4.375 -34 1 C-31.48828125 0.7421875 -31.48828125 0.7421875 -28.3125 0.875 C-21.95988294 1.03028619 -15.74331317 0.70643695 -9.41015625 0.21875 C-6.26116513 0.01675286 -3.15420226 -0.03852461 0 0 Z " fill="#6A1424" transform="translate(780,124)"/>
<path d="M0 0 C2 1 2 1 2.6875 3 C2.790625 3.66 2.89375 4.32 3 5 C2.67 5.33 2.34 5.66 2 6 C1.87700834 7.68709347 1.82214742 9.37920903 1.79467773 11.07055664 C1.7647599 12.69212425 1.7647599 12.69212425 1.73423767 14.34645081 C1.71752518 15.5224736 1.70081268 16.6984964 1.68359375 17.91015625 C1.66281265 19.10732773 1.64203156 20.30449921 1.62062073 21.53794861 C1.55499721 25.37940487 1.49618097 29.22093201 1.4375 33.0625 C1.39432695 35.65951267 1.35071307 38.25651806 1.30664062 40.85351562 C1.19930284 47.23560117 1.09756069 53.61775793 1 60 C0.67 60 0.34 60 0 60 C0 40.2 0 20.4 0 0 Z " fill="#770318" transform="translate(177,115)"/>
<path d="M0 0 C-1.32 0.99 -2.64 1.98 -4 3 C-2.50146484 3.50660156 -2.50146484 3.50660156 -0.97265625 4.0234375 C0.33086217 4.47357336 1.63424043 4.92411525 2.9375 5.375 C3.59685547 5.59671875 4.25621094 5.8184375 4.93554688 6.046875 C9.88671875 7.7734375 9.88671875 7.7734375 11 10 C2.20612728 8.12589598 -6.50865957 5.98344394 -15 3 C-15 2.34 -15 1.68 -15 1 C-9.91913204 0.15318867 -5.15171623 -0.09038099 0 0 Z " fill="#251B2D" transform="translate(398,106)"/>
<path d="M0 0 C4.65490642 0.84719297 9.18477674 2.085478 13.75 3.3125 C22.793676 5.72138317 31.87809653 7.90932046 41 10 C37.14767419 11.42678734 34.2310617 10.56476507 30.3125 9.625 C26.25761752 8.6931326 22.33528414 7.83709906 18.1875 7.5 C12.86507429 7.02157971 7.77561715 5.38780857 3 3 C3 2.34 3 1.68 3 1 C2.01 0.67 1.02 0.34 0 0 Z " fill="#6B1729" transform="translate(664,112)"/>
<path d="M0 0 C3 1 3 1 4.625 4.1875 C5.89741899 7.41184969 6.57941506 10.55120353 7 14 C7.66 14 8.32 14 9 14 C9.33 15.32 9.66 16.64 10 18 C11.32 17.67 12.64 17.34 14 17 C14 18.32 14 19.64 14 21 C13.34 21 12.68 21 12 21 C12.66 22.65 13.32 24.3 14 26 C13.34 26.33 12.68 26.66 12 27 C11.46890625 25.865625 10.9378125 24.73125 10.390625 23.5625 C9.67713603 22.04164194 8.96359138 20.52081001 8.25 19 C7.72792969 17.88431641 7.72792969 17.88431641 7.1953125 16.74609375 C5.43016929 12.98699247 3.6290223 9.25823176 1.734375 5.5625 C0 2 0 2 0 0 Z " fill="#650A1C" transform="translate(608,164)"/>
<path d="M0 0 C0.66 0 1.32 0 2 0 C1.67 2.31 1.34 4.62 1 7 C2.32 7.66 3.64 8.32 5 9 C4.01 9 3.02 9 2 9 C2.33 9.99 2.66 10.98 3 12 C2.01 12.33 1.02 12.66 0 13 C0.33 13.99 0.66 14.98 1 16 C-0.65 16.66 -2.3 17.32 -4 18 C-3.48914188 11.56318772 -2.27057103 6.04057576 0 0 Z " fill="#212D42" transform="translate(76,29)"/>
<path d="M0 0 C0 0.66 0 1.32 0 2 C-0.61875 2.268125 -1.2375 2.53625 -1.875 2.8125 C-4.2995233 3.95556848 -4.2995233 3.95556848 -6 7 C-7.65 5.68 -9.3 4.36 -11 3 C-11.33 3.99 -11.66 4.98 -12 6 C-14.85384047 7.37407134 -16.1634548 6.95284958 -19.25 6.0625 C-20.1575 5.711875 -21.065 5.36125 -22 5 C-22 4.67 -22 4.34 -22 4 C-19.08444885 3.32810344 -16.16773049 2.66230692 -13.25 2 C-12.0125 1.71382813 -12.0125 1.71382813 -10.75 1.421875 C-9.95078125 1.24140625 -9.1515625 1.0609375 -8.328125 0.875 C-7.5949707 0.70742187 -6.86181641 0.53984375 -6.10644531 0.3671875 C-4 0 -4 0 0 0 Z M-10 6 C-9.34 6 -8.68 6 -8 6 C-8.33 6.66 -8.66 7.32 -9 8 C-9.33 7.34 -9.66 6.68 -10 6 Z " fill="#770C21" transform="translate(803,119)"/>
<path d="M0 0 C2.97923003 -0.02727678 5.95820379 -0.04697128 8.9375 -0.0625 C9.76830078 -0.07087891 10.59910156 -0.07925781 11.45507812 -0.08789062 C23.02051186 -0.13289231 23.02051186 -0.13289231 28 1 C28.66 1.66 29.32 2.32 30 3 C13.625 3 13.625 3 6.8125 2.5 C5.54019531 2.4071875 4.26789063 2.314375 2.95703125 2.21875 C1.98121094 2.1465625 1.00539063 2.074375 0 2 C0 1.34 0 0.68 0 0 Z " fill="#1F273F" transform="translate(371,41)"/>
<path d="M0 0 C0 0.99 0 1.98 0 3 C4.62 4.32 9.24 5.64 14 7 C14 7.66 14 8.32 14 9 C11.33164478 8.4026523 8.66550637 7.79732883 6 7.1875 C5.25621094 7.02185547 4.51242187 6.85621094 3.74609375 6.68554688 C-1.36331217 5.50816203 -6.12507025 3.93335282 -11 2 C-11 1.67 -11 1.34 -11 1 C-5.555 0.505 -5.555 0.505 0 0 Z " fill="#261F2E" transform="translate(675,109)"/>
<path d="M0 0 C0.36923077 4.55384615 0.36923077 4.55384615 -1.5 6.8125 C-1.995 7.204375 -2.49 7.59625 -3 8 C-1.68 8.66 -0.36 9.32 1 10 C-3.15944744 11.30492469 -6.65036909 12.12019705 -11 12 C-2.26213592 0 -2.26213592 0 0 0 Z " fill="#700A1C" transform="translate(619,256)"/>
<path d="M0 0 C0.66 0 1.32 0 2 0 C2 0.66 2 1.32 2 2 C2.66 2.33 3.32 2.66 4 3 C3.9175 3.94875 3.835 4.8975 3.75 5.875 C3.72469596 12.0744897 6.62317141 17.93475711 10 23 C5.77336686 21.49048817 4.16921968 18.8148346 2 15 C0.54004778 10.22197454 0.45323236 4.9662695 0 0 Z " fill="#2F3A58" transform="translate(209,56)"/>
<path d="M0 0 C0 0.66 0 1.32 0 2 C-3.10121711 3.17461555 -6.20642241 4.33830456 -9.3125 5.5 C-10.19357422 5.83386719 -11.07464844 6.16773437 -11.98242188 6.51171875 C-12.82998047 6.82753906 -13.67753906 7.14335938 -14.55078125 7.46875 C-15.33106689 7.76201172 -16.11135254 8.05527344 -16.9152832 8.35742188 C-19 9 -19 9 -22 9 C-22 8.34 -22 7.68 -22 7 C-20.23141309 6.32739649 -18.46003984 5.66211605 -16.6875 5 C-15.70136719 4.62875 -14.71523438 4.2575 -13.69921875 3.875 C-11 3 -11 3 -8 3 C-8 2.34 -8 1.68 -8 1 C-5.07175348 0.02391783 -3.04386724 -0.08226668 0 0 Z " fill="#272536" transform="translate(586,96)"/>
<path d="M0 0 C0 9.9 0 19.8 0 30 C-0.66 30 -1.32 30 -2 30 C-2 21.75 -2 13.5 -2 5 C-2.66 5 -3.32 5 -4 5 C-4.99 4.67 -5.98 4.34 -7 4 C-2.25 0 -2.25 0 0 0 Z " fill="#252B3C" transform="translate(729,92)"/>
<path d="M0 0 C0.66 0.33 1.32 0.66 2 1 C-3.60459296 9.63702973 -9.4050504 16.9758608 -17 24 C-17 19.62335443 -14.21487423 17.77205761 -11.3125 14.8125 C-6.85888463 10.15105793 -3.12097005 5.68462403 0 0 Z " fill="#182133" transform="translate(271,54)"/>
<path d="M0 0 C0.66 0 1.32 0 2 0 C2.32523926 3.57763189 2.42956587 5.39542581 0.3125 8.375 C-2 10 -2 10 -4.5625 10.4375 C-7.36248966 9.93493775 -8.26107595 9.19653565 -10 7 C-9.67 6.01 -9.34 5.02 -9 4 C-8.071875 4.7425 -8.071875 4.7425 -7.125 5.5 C-5.16119096 7.19222773 -5.16119096 7.19222773 -3 7 C-2.814375 5.824375 -2.814375 5.824375 -2.625 4.625 C-2 2 -2 2 0 0 Z " fill="#2B354C" transform="translate(242,43)"/>
<path d="M0 0 C0 0.66 0 1.32 0 2 C-4.32319841 4.35330067 -8.31375319 5.73163674 -13.125 6.75 C-14.32382812 7.01296875 -15.52265625 7.2759375 -16.7578125 7.546875 C-19.66823704 7.95363313 -21.28921051 7.9980021 -24 7 C-21.87607494 6.3299166 -19.75082476 5.66403203 -17.625 5 C-16.44164062 4.62875 -15.25828125 4.2575 -14.0390625 3.875 C-11 3 -11 3 -9 3 C-8.67 2.34 -8.34 1.68 -8 1 C-5.30114269 0.42577504 -2.76207303 0 0 0 Z " fill="#68172A" transform="translate(578,102)"/>
<path d="M0 0 C1.5 1.0625 1.5 1.0625 3 3 C3.1875 6.6875 3.1875 6.6875 3 10 C2.34 10 1.68 10 1 10 C1 9.34 1 8.68 1 8 C0.34 8 -0.32 8 -1 8 C-0.67 9.65 -0.34 11.3 0 13 C-0.99 13.495 -0.99 13.495 -2 14 C-2.05410687 12.22950311 -2.09284119 10.45853151 -2.125 8.6875 C-2.14820313 7.70136719 -2.17140625 6.71523438 -2.1953125 5.69921875 C-2 3 -2 3 0 0 Z " fill="#232E42" transform="translate(210,48)"/>
<path d="M0 0 C0.66 0 1.32 0 2 0 C3.65 3.3 5.3 6.6 7 10 C7.66 9.67 8.32 9.34 9 9 C9.66 9.33 10.32 9.66 11 10 C9.87548273 12.9719385 8.77706209 15.33440687 7 18 C6.20558928 16.12616097 5.41460026 14.25087114 4.625 12.375 C4.18414063 11.33085937 3.74328125 10.28671875 3.2890625 9.2109375 C2.06863678 6.17096798 1.0018609 3.11794095 0 0 Z " fill="#6D0A1F" transform="translate(621,191)"/>
<path d="M0 0 C0.66 0.33 1.32 0.66 2 1 C3.70683154 6.54720251 2.3102992 11.52056697 1 17 C1.99 17 2.98 17 4 17 C2.68 18.32 1.36 19.64 0 21 C-0.99 20.67 -1.98 20.34 -3 20 C-2.7834375 19.31035156 -2.566875 18.62070312 -2.34375 17.91015625 C-0.50372836 11.7000832 0.31818285 6.46971792 0 0 Z " fill="#1C2232" transform="translate(267,24)"/>
<path d="M0 0 C5.65394631 -0.34615998 9.03006806 0.56574762 14 3 C13.01 3.66 12.02 4.32 11 5 C9.02 4.01 7.04 3.02 5 2 C5 2.66 5 3.32 5 4 C2.69 4.33 0.38 4.66 -2 5 C-1.34 3.35 -0.68 1.7 0 0 Z " fill="#740B22" transform="translate(43,97)"/>
<path d="M0 0 C-1.375 2 -1.375 2 -4 4 C-8.95250658 4.69707949 -12.7863742 4.80908387 -17 2 C-5.47835991 -0.29612756 -5.47835991 -0.29612756 0 0 Z " fill="#6B1120" transform="translate(513,120)"/>
<path d="M0 0 C-3.09419048 1.77736058 -5.5795259 2.31378764 -9.125 2.5625 C-12.69798773 2.78049065 -12.69798773 2.78049065 -16 4 C-17.70702735 4.06996014 -19.41668003 4.08440154 -21.125 4.0625 C-22.03507813 4.05347656 -22.94515625 4.04445313 -23.8828125 4.03515625 C-24.58148438 4.02355469 -25.28015625 4.01195313 -26 4 C-21.77945961 1.70656309 -17.69696565 1.07406871 -13 0.3125 C-12.19304687 0.17005859 -11.38609375 0.02761719 -10.5546875 -0.11914062 C-9.77351563 -0.24869141 -8.99234375 -0.37824219 -8.1875 -0.51171875 C-7.47980469 -0.62990967 -6.77210938 -0.74810059 -6.04296875 -0.86987305 C-3.81612767 -1.01171175 -2.12377146 -0.64816789 0 0 Z " fill="#681423" transform="translate(203,111)"/>
<path d="M0 0 C3 0 3 0 6 1 C4.41728767 2.27160666 2.83380365 3.54225285 1.25 4.8125 C0.36828125 5.52019531 -0.5134375 6.22789063 -1.421875 6.95703125 C-2.69804687 7.96830078 -2.69804687 7.96830078 -4 9 C-4.72703125 9.58136719 -5.4540625 10.16273437 -6.203125 10.76171875 C-8 12 -8 12 -10 12 C-10 11.34 -10 10.68 -10 10 C-8.57421875 8.88671875 -8.57421875 8.88671875 -6.6875 7.6875 C-3.4499164 5.49871109 -1.94595641 3.40542371 0 0 Z " fill="#272D41" transform="translate(182,51)"/>
<path d="M0 0 C0.99 0.33 1.98 0.66 3 1 C3.33 2.65 3.66 4.3 4 6 C2.68 5.01 1.36 4.02 0 3 C-0.74957157 6.47147842 -0.74957157 6.47147842 -1 10 C-0.01 10 0.98 10 2 10 C2.33 9.34 2.66 8.68 3 8 C2.67 9.32 2.34 10.64 2 12 C-0.4375 11.25 -0.4375 11.25 -3 10 C-4.37151753 7.34839943 -4.05300149 6.17531262 -3.1875 3.3125 C-2 1 -2 1 0 0 Z " fill="#152336" transform="translate(237,39)"/>
<path d="M0 0 C1.1484375 1.546875 1.1484375 1.546875 2 4 C1.33168497 6.56865429 0.60698344 8.80991993 -0.375 11.25 C-0.6225 11.8996875 -0.87 12.549375 -1.125 13.21875 C-1.73639014 14.81777037 -2.36640959 16.40964556 -3 18 C-3.66 18 -4.32 18 -5 18 C-4.67 15.69 -4.34 13.38 -4 11 C-3.34 11 -2.68 11 -2 11 C-1.855625 9.9275 -1.71125 8.855 -1.5625 7.75 C-1.16250558 5.08337051 -0.72408076 2.58600271 0 0 Z " fill="#690A1B" transform="translate(725,176)"/>
<path d="M0 0 C0 0.66 0 1.32 0 2 C-0.63808594 2.10957031 -1.27617188 2.21914062 -1.93359375 2.33203125 C-2.75988281 2.49058594 -3.58617187 2.64914063 -4.4375 2.8125 C-5.26121094 2.96332031 -6.08492187 3.11414063 -6.93359375 3.26953125 C-7.95646484 3.63111328 -7.95646484 3.63111328 -9 4 C-9.33 4.99 -9.66 5.98 -10 7 C-14.455 7.495 -14.455 7.495 -19 8 C-15.85512507 5.41589795 -12.69294159 3.86214318 -8.9375 2.3125 C-7.89464844 1.87550781 -6.85179687 1.43851562 -5.77734375 0.98828125 C-3 0 -3 0 0 0 Z " fill="#66152A" transform="translate(854,101)"/>
<path d="M0 0 C3.76119476 0.62393651 6.18960042 2.34773715 9.25 4.5625 C10.14203125 5.20316406 11.0340625 5.84382813 11.953125 6.50390625 C12.96632813 7.24447266 12.96632813 7.24447266 14 8 C13.01 8.33 12.02 8.66 11 9 C10.38125 8.505 9.7625 8.01 9.125 7.5 C7.05388789 5.68503789 7.05388789 5.68503789 4.25 6.3125 C3.5075 6.539375 2.765 6.76625 2 7 C0.5393715 4.35261084 0 3.10551666 0 0 Z " fill="#6B0D1E" transform="translate(318,90)"/>
<path d="M0 0 C0.78375 0.185625 1.5675 0.37125 2.375 0.5625 C4.97089775 1.25962266 4.97089775 1.25962266 7 0 C7.99 0.66 8.98 1.32 10 2 C8.23141309 2.67260351 6.46003984 3.33788395 4.6875 4 C3.70136719 4.37125 2.71523438 4.7425 1.69921875 5.125 C-1 6 -1 6 -4 6 C-4 5.34 -4 4.68 -4 4 C-3.01 3.34 -2.02 2.68 -1 2 C-0.67 1.34 -0.34 0.68 0 0 Z " fill="#6E0C20" transform="translate(624,259)"/>
<path d="M0 0 C0.66 0.33 1.32 0.66 2 1 C1.875 2.75 1.875 2.75 1 5 C-1.875 7.3125 -1.875 7.3125 -5 9 C-5.99 8.67 -6.98 8.34 -8 8 C-5.36 5.36 -2.72 2.72 0 0 Z " fill="#20213B" transform="translate(248,81)"/>
<path d="M0 0 C0.66 0 1.32 0 2 0 C5.4887612 4.29385993 5.26854022 7.71870895 5 13 C2.94876752 10.94876752 2.35852882 9.72994937 1.375 7.0625 C0.98441406 6.02802734 0.98441406 6.02802734 0.5859375 4.97265625 C0 3 0 3 0 0 Z M3 1 C3.66 1.66 4.32 2.32 5 3 C4.34 3 3.68 3 3 3 C3 2.34 3 1.68 3 1 Z " fill="#6D0A1D" transform="translate(603,151)"/>
<path d="M0 0 C1.32 1.65 2.64 3.3 4 5 C4.66 4.67 5.32 4.34 6 4 C6 5.65 6 7.3 6 9 C4.02 9.99 4.02 9.99 2 11 C0.80712589 7.12315913 0 4.08378077 0 0 Z " fill="#6D0B1A" transform="translate(600,140)"/>
<path d="M0 0 C0.66 0.66 1.32 1.32 2 2 C0.35 3.98 -1.3 5.96 -3 8 C-3.66 7.67 -4.32 7.34 -5 7 C-4.34 6.01 -3.68 5.02 -3 4 C-4.65 4.33 -6.3 4.66 -8 5 C-5.31158141 2.74754119 -3.35358125 1.11786042 0 0 Z " fill="#101B2E" transform="translate(204,80)"/>
<path d="M0 0 C0.66 0.66 1.32 1.32 2 2 C-0.64 3.65 -3.28 5.3 -6 7 C-6.33 6.01 -6.66 5.02 -7 4 C-5 1 -5 1 -2.5 0.1875 C-1.2625 0.0946875 -1.2625 0.0946875 0 0 Z " fill="#690B1D" transform="translate(673,239)"/>
<path d="M0 0 C-0.99 0 -1.98 0 -3 0 C-3.33 0.99 -3.66 1.98 -4 3 C-6.85384047 4.37407134 -8.1634548 3.95284958 -11.25 3.0625 C-12.1575 2.711875 -13.065 2.36125 -14 2 C-14 1.67 -14 1.34 -14 1 C-12.41913952 0.63495397 -10.83516093 0.28339494 -9.25 -0.0625 C-8.36828125 -0.25972656 -7.4865625 -0.45695312 -6.578125 -0.66015625 C-4.01320972 -0.99825872 -2.42908361 -0.81158635 0 0 Z " fill="#681426" transform="translate(795,122)"/>
<path d="M0 0 C0.33 0.66 0.66 1.32 1 2 C-0.5 3.6875 -0.5 3.6875 -3 5 C-5.82923922 4.35208262 -8.38216883 3.23902204 -11 2 C-11 1.67 -11 1.34 -11 1 C-5.555 0.505 -5.555 0.505 0 0 Z " fill="#261625" transform="translate(675,109)"/>
<path d="M0 0 C0.33 0 0.66 0 1 0 C1.3125 3.25 1.3125 3.25 1 7 C-1.5 9.4375 -1.5 9.4375 -4 11 C-4 7.80389448 -3.45328458 6.58282374 -2 3.8125 C-1.62875 3.09707031 -1.2575 2.38164063 -0.875 1.64453125 C-0.441875 0.83048828 -0.441875 0.83048828 0 0 Z " fill="#263148" transform="translate(207,88)"/>
<path d="M0 0 C0.99 0.33 1.98 0.66 3 1 C3.33 1.99 3.66 2.98 4 4 C3.01 4.33 2.02 4.66 1 5 C0.34 4.67 -0.32 4.34 -1 4 C-1 4.66 -1 5.32 -1 6 C-1.66 6 -2.32 6 -3 6 C-3.33 5.01 -3.66 4.02 -4 3 C-2.1875 1.4375 -2.1875 1.4375 0 0 Z " fill="#263148" transform="translate(32,56)"/>
<path d="M0 0 C1.5625 1.125 1.5625 1.125 3 3 C2.75896128 6.77627333 1.88638485 9.73026626 0 13 C-0.66 12.67 -1.32 12.34 -2 12 C-1.649375 11.29875 -1.29875 10.5975 -0.9375 9.875 C0.16478784 6.49465062 -0.29743038 4.43478481 -1 1 C-0.67 0.67 -0.34 0.34 0 0 Z " fill="#1B233F" transform="translate(274,40)"/>
<path d="M0 0 C0.66 0 1.32 0 2 0 C1.719172 1.98073365 1.42503386 3.95958448 1.125 5.9375 C0.88136719 7.59072266 0.88136719 7.59072266 0.6328125 9.27734375 C0.42398438 10.17582031 0.21515625 11.07429688 0 12 C-0.99 12.495 -0.99 12.495 -2 13 C-2.05416188 11.39620659 -2.09286638 9.79188594 -2.125 8.1875 C-2.14820312 7.29417969 -2.17140625 6.40085937 -2.1953125 5.48046875 C-2 3 -2 3 0 0 Z " fill="#262F46" transform="translate(83,31)"/>
<path d="M0 0 C1.32 0.66 2.64 1.32 4 2 C2.75023244 5.65316671 2.32901247 6.78065836 -1 9 C-0.67 6.03 -0.34 3.06 0 0 Z " fill="#720E25" transform="translate(713,199)"/>
<path d="M0 0 C0 0.66 0 1.32 0 2 C-5.41538462 5.07692308 -5.41538462 5.07692308 -8.375 4.6875 C-8.91125 4.460625 -9.4475 4.23375 -10 4 C-8 1 -8 1 -5 0.3125 C-2 0 -2 0 0 0 Z " fill="#680E1B" transform="translate(578,102)"/>
<path d="M0 0 C7.95393759 4.35215453 7.95393759 4.35215453 10 7 C10 7.66 10 8.32 10 9 C6.04322598 7.32598022 3.15535787 4.86850715 0 2 C0 1.34 0 0.68 0 0 Z " fill="#20253D" transform="translate(88,88)"/>
<path d="M0 0 C0.66 0.33 1.32 0.66 2 1 C-0.31 3.31 -2.62 5.62 -5 8 C-5.66 7.34 -6.32 6.68 -7 6 C-2.25 1.125 -2.25 1.125 0 0 Z " fill="#23334D" transform="translate(201,83)"/>
<path d="M0 0 C-2.91765 1.9451 -4.62537285 2.45276317 -8 3 C-8 2.01 -8 1.02 -8 0 C-4.71023192 -1.09658936 -3.28696233 -0.79953138 0 0 Z " fill="#2C2E3D" transform="translate(841,104)"/>
<path d="M0 0 C0.99 0 1.98 0 3 0 C4.65 2.97 6.3 5.94 8 9 C3.6057464 6.8028732 2.45675647 5.12384121 0 1 C0 0.67 0 0.34 0 0 Z " fill="#26334E" transform="translate(211,70)"/>
<path d="M0 0 C2.475 0.99 2.475 0.99 5 2 C3.875 3.5 3.875 3.5 2 5 C-1.1875 5.1875 -1.1875 5.1875 -4 5 C-2.68 3.35 -1.36 1.7 0 0 Z " fill="#2A3249" transform="translate(516,112)"/>
<path d="M0 0 C2.97 0 5.94 0 9 0 C8.67 0.99 8.34 1.98 8 3 C5.6568787 2.74438677 3.32156597 2.40729228 1 2 C0.67 1.34 0.34 0.68 0 0 Z " fill="#6E0E22" transform="translate(363,107)"/>
<path d="M0 0 C0.33 0.66 0.66 1.32 1 2 C2.32 2 3.64 2 5 2 C5 2.99 5 3.98 5 5 C-0.75 4.25 -0.75 4.25 -3 2 C-2.01 2 -1.02 2 0 2 C0 1.34 0 0.68 0 0 Z " fill="#22283E" transform="translate(676,109)"/>
<path d="M0 0 C0 3.3 0 6.6 0 10 C-0.33 10 -0.66 10 -1 10 C-1 7.69 -1 5.38 -1 3 C-2.65 3 -4.3 3 -6 3 C-2.25 0 -2.25 0 0 0 Z " fill="#601D2C" transform="translate(586,99)"/>
<path d="M0 0 C0.66 0.33 1.32 0.66 2 1 C2.625 3.5625 2.625 3.5625 3 6 C2.401875 5.835 1.80375 5.67 1.1875 5.5 C-1.11344336 4.8885876 -1.11344336 4.8885876 -4 5 C-2.68 3.35 -1.36 1.7 0 0 Z " fill="#131924" transform="translate(89,7)"/>
<path d="M0 0 C0.33 0.99 0.66 1.98 1 3 C1.99 3.33 2.98 3.66 4 4 C1.36 4.33 -1.28 4.66 -4 5 C-2.68 3.35 -1.36 1.7 0 0 Z " fill="#66121B" transform="translate(612,263)"/>
<path d="M0 0 C2.64 0 5.28 0 8 0 C8 0.33 8 0.66 8 1 C3.49646738 2.75747614 -0.17639811 3.19294408 -5 3 C-5 2.67 -5 2.34 -5 2 C-3.35 2 -1.7 2 0 2 C0 1.34 0 0.68 0 0 Z " fill="#720C20" transform="translate(280,96)"/>
<path d="M0 0 C0.66 0.33 1.32 0.66 2 1 C0.8803014 2.00593243 -0.2459412 3.0045849 -1.375 4 C-2.00148437 4.556875 -2.62796875 5.11375 -3.2734375 5.6875 C-5 7 -5 7 -7 7 C-7 6.34 -7 5.68 -7 5 C-5.46875 3.7109375 -5.46875 3.7109375 -3.5 2.375 C-2.8503125 1.92898437 -2.200625 1.48296875 -1.53125 1.0234375 C-1.0259375 0.68570313 -0.520625 0.34796875 0 0 Z " fill="#1F283B" transform="translate(179,56)"/>
<path d="M0 0 C0.66 0 1.32 0 2 0 C2 0.66 2 1.32 2 2 C2.99 2.33 3.98 2.66 5 3 C3.35 3.66 1.7 4.32 0 5 C-0.5625 3.0625 -0.5625 3.0625 -1 1 C-0.67 0.67 -0.34 0.34 0 0 Z " fill="#740B1F" transform="translate(675,235)"/>
<path d="M0 0 C2.97 0.495 2.97 0.495 6 1 C6 1.66 6 2.32 6 3 C2.25 4.125 2.25 4.125 0 3 C0 2.01 0 1.02 0 0 Z " fill="#6A1024" transform="translate(418,120)"/>
<path d="M0 0 C0.99 0.495 0.99 0.495 2 1 C2.40729228 3.32156597 2.74438677 5.6568787 3 8 C2.01 8 1.02 8 0 8 C0 5.36 0 2.72 0 0 Z " fill="#1E2439" transform="translate(86,35)"/>
</svg>
