<svg viewBox="133.292 465.10400000000004 1159.924 391.36800000000005" xmlns="http://www.w3.org/2000/svg" style="max-height: 500px" width="1159.924" height="391.36800000000005"><path d="M156.488 595.226c73.516 22.655 84.405 40.067 167.721 33.287.92 29.976.493 63.537.692 93.774 15.427 1.004 36.318.104 52.22.02 37.05-.338 74.102-.456 111.153-.366l.027-10.51q-39.927-.644-79.858-.77c-14.507.022-41.638.749-55.434-1.052-2.793-22.631-2.561-59.017-3.417-83.097 20.111-3.957 40.387-5.843 60.275-9.512 34.834-6.425 69.332-13.115 104.286-19.023.47 7.308.01 18.467-.09 26.064-.136 10.297.197 23.865-.902 33.907-11.056 1.633-40.443 1.156-52.34 1.017q-38.797-.546-77.596-.645l.013 11.915c43.44.262 86.777-.65 130.24.46.532 10.338.846 43.796-.376 52.845 11.764 1.399 29.024.36 41.15.582 35.107.658 70.343-1.073 105.429.16 7.403-.984 24.457-.264 32.71-.098l.02-11.417-153.708-1.004a2909 2909 0 0 1-.537-114.405c10.677 3.133 21.265 8.033 31.925 10.771 16.493 4.236 34.62 6.522 50.97 11.003 29.561 8.098 55.726 17.048 86.312 20.571.021 15.246-1.038 31.761-1.239 47.35l-1.295 139.528c-31.131.443-62.467-.243-93.611-.533-24.639-.236-49.53.512-74.09-.042-.41-11.743-.16-23.894-.066-35.679l-23.718-.775c.365 11.971.366 23.95.005 35.92-23.01.603-46.477.09-69.535-.11l-94.704-1.066c-.322-11.55-.09-23.424.009-35l-23.77.014.062 34.543c-25.593.595-53.129-.478-79.037-.284-28.75.214-59.692 1.031-88.295.076-.53-10.462-.19-23.34-.21-33.961l-.406-55.737c-.492-46.198-1.977-92.557-.985-138.721m488.092 93.867c.33-6.761.642-13.067-.558-19.771-19.99 4.5-23.092 5.598-43.05.496l-.373 20.974c5.484.126 40.812.822 43.89-.676zm-430.154 1.536c9.114-1.081 40.638-2.017 49.089-1-1.032-8.024-.49-16.49-.863-24.59a968 968 0 0 1-47.8-.244c.038 8.566.245 17.307-.426 25.834" fill="#a01031"/><path d="M156.488 595.226c73.516 22.655 84.405 40.067 167.721 33.287.92 29.976.493 63.537.692 93.774 15.427 1.004 36.318.104 52.22.02 37.05-.338 74.102-.456 111.153-.366l.027-10.51q-39.927-.644-79.858-.77c-14.507.022-41.638.749-55.434-1.052-2.793-22.631-2.561-59.017-3.417-83.097 20.111-3.957 40.387-5.843 60.275-9.512 34.834-6.425 69.332-13.115 104.286-19.023.47 7.308.01 18.467-.09 26.064-.136 10.297.197 23.865-.902 33.907-11.056 1.633-40.443 1.156-52.34 1.017q-38.797-.546-77.596-.645l.013 11.915c43.44.262 86.777-.65 130.24.46.532 10.338.846 43.796-.376 52.845-6.353-13.612 3.571-45.563-7.555-48.91-11.076-3.333-35.76-.154-48.69-.24-15.437.081-30.838.08-46.281.163-8.017.043-15.215.3-23.277-.545-9.737-1.022-9.18-17.558-2.891-18.59 9.127-1.495 21.697.235 31.192-.156 19.173-.002 37.874-.102 56.971-.136 13.136-.024 24.239.808 37.376-.516 1.346-9.474 3.97-39.667-.372-47.954-7.003-6.199-42.461 3.431-51.637 5.036-9.475 1.657-21.1 3.024-30.447 4.987-16.464 3.46-30.357 7.355-47.383 7.643-4.41.075-19.36 5.61-24.531 7.237-2.281 16.27-2.513 58.178 1.304 73.612 12.61 1.475 21.988.277 34.365.506a2882 2882 0 0 1 71.317 2.257c5.04.235 25.579-1.219 28.2 3.912 4.274 8.37-1.589 15.89-11.157 14.367-45.323-1.69-90.506.775-135.852-.146-27.49-.553-21.472-3.025-22.529-27.425-.816-18.832-.819-37.665-1.14-56.514-.03-1.476-1.087-4.996-2.654-5.529-11.276-3.115-24.058.795-35.662.547-20.38-.436-39.699-9.853-58.769-14.834-21.156-5.525-41.388-17.308-62.204-20.944-2.149 10.794-1.075 19.693-.808 30.56 1.171 47.742 1.4 95.531 2.794 143.264.17 5.83 1.511 12.006 1.664 17.884.169 8.967-1.579 16.853.298 25.854 7.995 2.05 26.976 1.613 35.961 1.578l46.774-.221c21.093-.076 52.196 1.17 72.541-.776 2.215-10.628.687-20.577 2.695-31.517 10.371-4.48 17.492-4.805 28.074-.464 1.883 10.753 1.917 22.537 4.674 32.715 17.963 1.641 144.3 5.858 152.402-1.287 2.51-2.21 2.42-5.962 2.345-9.015-.149-6.1-2.433-15.427 2.316-20.336 3.6-3.725 10.03-3.31 14.795-3.205 3.909.083 8.874.477 11.802 3.42 2.008 2.015 2.43 4.75 2.338 7.485-.204 6.058-4.303 17.926.082 22.703.987 1.073 1.451 1.433 2.862 1.724 11.727 2.389 25.744 1.46 37.756 1.696 29.483.533 58.973.679 88.46.45 5.792-.034 20.515.111 25.328-1.751 5.207-8.385 1.032-24.497 2.389-34.204.152-1.115 1.8-2.666 2.686-3.504 1.51-11.154 2.694-57.329-1.73-66.358 1.959-12.172 6.708-64.155 2.07-72.29-1.745.065-1.22-.034-2.798.456-1.475-1.48-1.578-1.67-2.72-3.435-8.233-3.697-36.227-8.88-46.34-11.382-12.287-3.04-21.786-7.283-33.436-10.536-12.992-3.628-29.298-5.388-42.707-8.62-8.177-1.972-20.813-7.582-28.656-7.788-6.405 8.999-2.716 40.404-2.886 52.604-.208 14.895-2.821 35.213.676 49.214l.072.298c9.875 2.278 23.8 2.45 34.17 2.714 24.913.61 49.857.263 74.776.443 11.86.083 23.885-.457 35.7.505 11.088.9 14.052 7.063 6.145 15.018-8.363.201-26.664 1.205-33.68-.983 7.404-.983 24.458-.263 32.71-.097l.02-11.417-153.707-1.004a2909 2909 0 0 1-.537-114.405c10.677 3.133 21.265 8.033 31.925 10.771 16.493 4.236 34.62 6.522 50.97 11.003 29.561 8.098 55.726 17.048 86.312 20.571.021 15.246-1.038 31.761-1.239 47.35l-1.295 139.528c-31.131.443-62.467-.243-93.611-.533-24.639-.236-49.53.512-74.09-.042-.41-11.743-.16-23.894-.066-35.679l-23.718-.775c.365 11.971.366 23.95.005 35.92-23.01.603-46.477.09-69.535-.11l-94.704-1.066c-.322-11.55-.09-23.424.009-35l-23.77.014.062 34.543c-25.593.595-53.129-.478-79.037-.284-28.75.214-59.692 1.031-88.295.076-.53-10.462-.19-23.34-.21-33.961l-.406-55.737c-.492-46.198-1.977-92.557-.985-138.721" fill="#84162f"/><path d="M600.274 666.734c5.638 1.152 14.421 3.261 19.795 3.525l1.371.058c9.613.455 15.936-4.718 23.852-2.365 4.81 4.196 2.887 20.363.486 25.795-7.367 3.94-34.573 1.586-43.272-.29-10.295-2.223-4.711-19.974-2.232-26.723m.325 24.058c5.484.126 40.812.822 43.89-.676l.09-1.023c.33-6.761.643-13.067-.557-19.771-19.99 4.5-23.092 5.598-43.05.496z" fill="#84162f"/><path d="M263.515 689.63c-1.048 1.658-1.121 2.117-3.493 2.659-8.717 1.991-37.542 2.566-44.706-.651l-.89-1.01c9.114-1.08 40.638-2.016 49.089-.999" fill="#84162f"/><path d="M1267.144 596.913c2.839.282 1.787-.327 3.518 1.364 1.114 6.36 1.128 19.601 1.184 26.402.076 14.03.069 28.06-.007 42.09l-1.904 158.905c-20.37.408-40.567-.125-60.93-.201l-102.75-.007c-1.572.035-1.842-.2-3.427-.602-1.579-1.607-1.683-1.6-1.703-4.5-.049-6.205.173-12.568.263-18.771q.237-18.412.277-36.835l.443-125.936c8.71-.864 18.362-.848 27.439-1.668a293.6 293.6 0 0 0 65.846-13.72c24.808-8.33 45.78-18.955 71.751-26.52" fill="#84162f"/><path d="m1265.095 600.355 1.218 1.007c5.512 11.718 1.717 78.017 2.174 94.926 1.122 41.495.831 84.99-1.114 126.498-32.168 1.551-66.303.54-98.644.748-15.184.097-44.721 1.267-58.77-1.115-1.64-.56-3.281-1.149-4.327-2.603-1.883-2.603-1.6-165.033.319-176.68 12.885-3.95 21.09.046 32.105-2.282 21.443-4.533 46.812-9.446 67.535-16.13 14.125-4.555 27.509-12.1 41.744-16.741 5.546-1.808 10.815-5.373 16.832-7.331z" fill="#a01031"/><path d="M891.201 600.999c1.489 1.104 1.489 3.343 1.489 5.06.007 23.83-.146 47.704-.194 71.535l-.305 148.91c-54.594.963-112.346-.076-167.176-.152-2.929-4.618-1.96-23.015-1.945-29.378l.117-42.221c.132-37.029-.145-75.231.859-112.185 11.265-2.422 30.742-3.309 44.056-5.448 44.098-7.082 82.705-16.98 123.099-36.121" fill="#a01031"/><path d="M910.49 590.135c15.933 10.725 19.671 12.363 37.653 18.506a673 673 0 0 0 26.414 6.87 762 762 0 0 1 44.624 10.103c19.643 4.944 44.001 11.453 64.08 12.855-.152 27.96 1.08 75.336-13.82 98.995-9.243 18.334-30.86 40.996-48.834 50.35-12.836 9.86-49.27 28.54-64.973 33.138-2.582 1.114-7.865 3.58-10.35 4.25-3.214.167-4.965.603-7.513-1.162-2.424-7.81 13.245-12.373 8.232-22.503 1.198-3.739 2.88-7.394 4.134-11.189 11.493-34.93-13.966-67.265-26.955-97.833-16.146-31.403-12.747-67.59-12.691-102.38" fill="#a01031"/><path d="M974.557 615.512a762 762 0 0 1 44.624 10.102c19.643 4.944 44.001 11.453 64.08 12.855-.152 27.96 1.08 75.336-13.82 98.995.36-8.094 4.085-15.15 4.334-21.706.894-23.576 2.652-50.573.187-73.87-19.594-5.965-87.8-16.793-99.405-26.376" fill="#84162f"/><path d="M910.49 590.135c15.933 10.725 19.671 12.363 37.653 18.506-5.879.174-11.91.577-17.76-.37-3.76-.61-5.975-3.667-9.112-3.629l-.65.855c1.716 5.692.664 4.9-1.226 11.53-.603 2.12-4.694 3.382-5.31 5.86-3.013 12.208.754 28.61 3.184 40.482 2.015 9.847 5.955 19.735 5.913 29.146-16.146-31.403-12.747-67.59-12.691-102.38" fill="#84162f"/><path d="M1004.011 790.992c9.742.672 7.692-1.675 16.596-3.178-12.836 9.86-49.27 28.54-64.973 33.138 5.795-7.506 19.242-9.043 26.332-13.945 7.671-5.304 14.02-10.746 22.045-16.015" fill="#84162f"/><path d="M722.924 527.181c13.481-.867 31.372.028 45.358.004l90.017-.354c10.13.952 22.579 1.208 32.57.23-.52 12.835-1.08 25.704-1.669 38.535-.29 6.396 2.333 20.66-2.437 24.86-3.864 3.403-6.135 2.922-9.7 7.96-14.36 5.065-28.734 11.608-43.177 16.303-34.578 11.244-73.386 17.754-109.674 19.744-.602-18.811-.125-36.82-.228-55.56-.083-17.045-.672-34.645-1.06-51.722" fill="#1e598d"/><path d="M1102.544 527.345c12.678-1.3 38.628.062 53.196-.222 38.095-.743 76.709-1.823 114.762-.832.319 19.015.852 37.827.028 56.834.194 3.084.672 1.89-.72 3.967-8.828 3.37-17.137 5.947-25.868 9.622-28.346 11.929-55.515 25.536-86.36 29.798-6.073.84-12.221 2.246-18.48 2.264-8.593 1.943-26.45 2.12-35.589 2.387-.2-33.322.727-70.988-.969-103.818" fill="#1e598d"/><path d="M1102.544 527.345c12.678-1.3 38.628.062 53.196-.222 38.095-.743 76.709-1.823 114.762-.832.319 19.015.852 37.827.028 56.834-.076-.266-.16-.531-.229-.798-2.014-7.602.381-49.945-4.306-51.92-3.559-1.498-128.534-.425-143.947.07-5.2.166-10.496.451-15.62 1.424-1.724 12.39-.574 38.086-.18 50.82.36 14.956.381 29.917.056 44.873 10.704.96 23.423-.012 32.798 1.182-8.593 1.943-26.45 2.12-35.589 2.387-.2-33.322.727-70.988-.969-103.818" fill="#285475"/><path d="M985.31 523.041c23.61-2.282 61.94 1.672 80.648 17.321 17.476 14.621 4.494 31.02-12.58 37.333-16.756 6.19-28.872 8.737-46.826 9.778-21.277.548-61.22-2.3-77.25-15.808-39.396-33.195 39.633-47.031 56.008-48.624" fill="#1e598d"/><path d="M593.986 525.464c29.782-6.186 67.439-2.345 93.856 13.374 13.805 8.215 14.747 20.488 2.39 30.677-13.544 13.857-49.959 17.695-68.286 17.934-19.54.255-32.145-1.55-50.388-8.102-9.748-3.355-16.944-6.115-23.72-14.19-4.72-5.223-6.152-13.006-1.633-18.683 10.13-12.724 32.713-18.634 47.78-21.01" fill="#1e598d"/><path d="M593.986 525.464c29.782-6.186 67.439-2.345 93.856 13.374 13.805 8.215 14.747 20.488 2.39 30.677 3.515-16.05 12.19-14.506-5.46-27.003-2.865-.12-4.418-.136-7.203-.688l-.58-1.081 1.449-2.265c-2.006-2.436-8.822-4.093-12.01-5.16-13.626-4.561-26.7-7.781-41.165-7.792-9.855-.008-20.298.722-30.084.029z" fill="#285475"/><path d="M547.837 565.156c6.675 2.035 8.27 2.775 15.3 2.549 2.788 3.636 6.134 7.755 8.42 11.642-9.747-3.355-16.943-6.115-23.72-14.19" fill="#285475"/><defs><linearGradient gradientUnits="userSpaceOnUse" y2="787.34" y1="736.632" x2="540.826" x1="505.04" id="a"><stop stop-opacity=".937" stop-color="#285475" offset="0"/><stop stop-color="#285475" offset="1"/></linearGradient></defs><path transform="scale(.69238)" d="M626.653 708.363c7.648 2.02 16.454-3.474 28.512-1.64-2.912.836-4.881.755-6.217 2.67 3.216.811 4.476 1.099 7.739 1.504-14.581 2.643-49.665 10.285-59.773 19.944l.769 1.681c-12.412 7.318-31.631 16.221-41.948 23.171-47.618 32.078-100.326 91.982-163.079 76.063q-1.445-.37-2.887-.755c6.471.17 21.932 2.006 26.209-3.207-3.074-6.179-11.337-5.864-17.147-11.145 4.672.918 9.677 2.244 14.338 3.372 11.233-47.98 25.985-25.245 59.735-49.167 11.098-32.158 21.751-16.078 40.707-2.327 22.262-20.042 83.976-52.661 113.042-60.164M437.206 820.228c22.27-7.576 55.642-21.465 69.71-41.24l.647-.896c-5.795-6.133-12.896-12.977-19.966-17.596-5.145 9.151-6.461 12.384-15.824 19.373-16.512 12.326-54.273 9.432-50.86 38.199.349 2.938 1.519 3.174 3.481 4.448 4.411.438 8.623-.784 12.812-2.288" fill="url(#a)"/><path d="M213.768 536.598c3.429-14.66 7.617-30.211 13.167-44.305 1.669-4.236 4.341-9.155 9.466-8.437 13.045 9.48 3.58 63.602 23.092 74.576 6.307 3.547 9.828 4.774 16.651 7.002 4.023 3.656 9.744 3.438 11.872 7.716-2.961 3.61-13.666 2.339-18.146 2.221-2.772-.215-7.597-1.798-10.232-2.886-21.655-8.936-22.587-35.89-25.061-55.703-.289-2.692-.166-4.732-1.77-6.827l-1.164-.164c-2.4 2.152-2.362 5.212-2.588 8.332-.89 8.149-1.498 24.763-7.44 30.709-4.103 4.106-15.394 2.07-20.838 2.52-7.051.32-14.346.74-21.48 1.185-1.463.883-.794.352-1.56 2.539-3.633 2.438-10.386 3.248-13.227-1.038-1.278-1.929-.514-3.506-.117-5.616 14.853-14.31 30.748-10.2 49.375-11.824" fill="#1e598d"/><path d="M1035.971 609.939c21.617-5.023 27.703-7.9 46.168-19.558 1.628 12.07 1.13 29.147.887 41.528-7.824-.683-15.939-1.271-23.597-2.996-4.867-.63-10.302-1.78-15.177-2.704-5.92-3.866-20.896-6.544-29.246-10.064q10.8-2.05 21.54-4.418z" fill="#1e598d"/><path d="M1035.971 609.939c21.617-5.023 27.703-7.9 46.168-19.558 1.628 12.07 1.13 29.147.887 41.528-7.824-.683-15.939-1.271-23.597-2.996 4.335-.752 14.437-.492 19.532-.63 2.652-11.73 2.507-21.218 1.122-33.18-5.324 3.258-9.14 6.633-14 10.422-6.771 5.282-20.515 5.443-29.537 6.202z" fill="#285475"/><path d="M687.53 602.24c7.027-2.586 12.04-6.427 18.486-8.91.485 12.789 1.461 26.47-.055 39.084-9.292-.05-40.201-5.094-47.44-9.469-2.61-3.496-4.2-3.174-7.314-6.09l.428-1.419c1.903-1.244 3.036-2.122 4.81-3.553l1.728-.616c10.902-2.661 18.956-5.257 29.357-9.027" fill="#1e598d"/><path d="M658.173 611.267c10.902-2.661 18.956-5.257 29.357-9.027.111 3.874.3 3.512 3.86 5.169-2.21 2.697-28.752 4.1-33.217 3.858" fill="#285475"/><path d="M164.393 548.422c-.397 2.11-1.161 3.687.117 5.616 2.841 4.286 9.594 3.476 13.227 1.038.766-2.187.097-1.656 1.56-2.54 12.658 6.769 28.582 10.377 41.795 17.823 18.689 10.258 29.31 30.394 48.647 39.31 4.178 1.925 20.844 6.452 17.937 12.135-13.406 6.524-47.586-27.377-57.606-35.611a133 133 0 0 0-19.046-12.96c-17.473-9.8-33.592-13.947-53.47-15.43 2.409-3.922 3.954-5.826 6.839-9.381" fill="#285475"/><path d="M433.884 490.458c6.875-3.054 15.546-4.568 22.965-5.543 26.309-3.462 25.687 15.332 20.206 34.128 6.851 1.7 15.805 4.854 12.183 13.751-7.338 18.029-24.172 38.12-38.802 50.99-2.355 1.223-4.038 2.91-6.544 1.838a351 351 0 0 0 12.473-13.37c6.146-6.953 34.522-39.245 24.664-46.737-5.368-1.076-7.858.485-12.855 2.593 24.482-49.769-30.133-32.248-54.348-20.922l-.533-1.164c6.999-6.688 31.29-11.979 41.386-13.809 5.28.079 12.34 2.766 17.042 1.039.562-2.294.675-1.218-.328-3.34-4.346-2.888-12.588-1.244-17.768-.589-8.348-1.27-14.446 2.534-19.74 1.135" fill-opacity=".929" fill="#285475"/><path d="M384.792 581.43c1.469.208 1.01.143 2.393.866 1.793 7.546-11.562 11.656-15.497 20.552.068 1.226-.097 2.696 1.476 3.43 8.702 4.061 15.54-15.115 21.648-17.005l1.005.786.245 2.694c-1.832 4.154-3.475 8.426-5.15 12.648-6.203 4.016-25.192 13.033-24.343-2.776.454-8.477 11.738-16.373 18.223-21.195" fill-opacity=".961" fill="#285475"/><path d="M858.299 526.831c8.253-1.103 25.964-.581 34.668-.502.221 21.268.768 44.035.027 65.247-5.206 2.381-10.545 4.955-15.931 6.84 3.565-5.038 5.836-4.557 9.7-7.96 4.77-4.2 2.146-18.464 2.437-24.86.589-12.83 1.15-25.7 1.669-38.535-9.991.978-22.44.722-32.57-.23" fill-opacity=".988" fill="#285475"/><path d="M395.646 533.481c2.681 1.643 2.574 5.394 2.947 8.939 1.07 10.031 3.117 20.379 8.098 29.258 3.043 5.426 16.438 12.144 18.873 16.23l-.697 1.558c-12.09-5.9-20.852-10.887-26.561-23.863-4.849-11.02-6.922-20.55-2.66-32.122" fill-opacity=".914" fill="#285475"/><path d="M431.764 517.593c6.492 2.423 6.727 5.688 8.523 11.849l-1.787 7.217-6.254 5.344c-15.725-2.308-7.418-17.212-.482-24.41" fill-opacity=".929" fill="#285475"/><path d="M1003.727 615.819c9.68-3.017 22.087-4.444 32.244-5.88l.575 1.788a744 744 0 0 1-21.54 4.418c8.35 3.52 23.326 6.198 29.246 10.064-10.69-1.368-30.686-6.572-40.525-10.39" fill-opacity=".882" fill="#285475"/><path d="M946.003 801.537c5.013 10.13-10.656 14.693-8.232 22.503 2.548 1.765 4.3 1.329 7.512 1.163-7.083 3.676-13.688 5.574-21.263 7.796 9.707-10.531 14.81-19.359 21.983-31.462" fill-opacity=".988" fill="#84162f"/><path d="M631.244 614.293a914 914 0 0 0 25.2-2.41c-1.773 1.431-2.906 2.31-4.809 3.553l-.428 1.42c3.114 2.915 4.704 2.593 7.315 6.09-9.61-2.13-18.112-5.267-27.278-8.653" fill-opacity=".988" fill="#285475"/><path d="M453.625 489.323c5.18-.655 13.422-2.299 17.768.59 1.003 2.12.89 1.045.328 3.339-4.703 1.727-11.762-.96-17.042-1.039-2.26-.28-3.131-.48-5.358-1.041.925-1.326 2.288-1.27 4.304-1.849" fill="#1e598d"/><path d="M443.892 585.622c2.506 1.073 4.189-.615 6.544-1.837-2.556 2.995-7.181 8.638-11.594 7.756-.082-2.398 3.26-4.517 5.05-5.919" fill-opacity=".596" fill="#285475"/><path d="M229.055 518.123c.226-3.12.188-6.18 2.588-8.332l1.165.164c1.603 2.095 1.48 4.135 1.769 6.827-2.924-.375-2.757-.745-5.522 1.341" fill-opacity=".082" fill="#daf2ff"/></svg>