<svg xmlns="http://www.w3.org/2000/svg" width="1024" height="1024"><path fill="#fdfdfd" d="M0 0h1024v1024H0z"/><path fill="#84172f" d="m113 430 24 8c22 9 45 17 68 18l29-2v10l1 57h117v-7l-98-1-2-61 41-6 79-14-1 44-94-1v9h94v39h129v-8h-43l-68-1v-83l30 10 25 5c23 6 43 13 66 17v10l-1 103 1 21h-17l-105-1v-26h-17v26H252v-26h-17v25H115c-1-55-3-110-2-165"/><path fill="#a21031" d="M116 434c10 1 13 3 22 7 7 4 15 6 23 8 3 1 5 1 7 3 5 3 13 2 18 5h3c9 7 34 0 42 3v25c1 9 2 19 1 28 0 3 0 8 2 10 6 2 48 1 56 1h63c3-3 4-12 0-12l-80-2c-3 0-13 1-15-1-2-5-1-11-2-17 0-5-3-33 2-36l14-5c6-1 13 0 18-2 12-2 23-5 35-6 5 0 42-11 44-5 1 5 1 30-1 34-2 2-18 1-21 1h-54c-5 0-11-1-16 1l-2 1c-1 2 0 8 1 10l4 2h53c8 0 27-2 34 0 4 2 0 30 3 36l2 1 18 2 20-1h71c6 0 14 2 19-1 3-2 6-5 3-9-5-3-13-2-19-2l-24-1c-19 1-48 0-67-1-4 0-2-28-2-33v-38c3-8 10-2 12-1l39 9c8 1 16 5 24 7l37 9 1 3 2-1v-1l1 1 1 7-1 20v20l-1 4v3l1 3c0 8 1 39-1 45l-1-5c-2 9 0 16-1 25 0 3 0 5-2 7-6 1-109 0-110-1-4-2 0-19-2-24l-2-1h-18c-4 6 2 20-5 24-8 1-104 1-107-1-3-1-3-19-5-23l-7-3-1 1h-7l-4 2c-3 4-1 20-3 23h-48l-56 1-8-2c-3-3 2-18 0-25l-1 3v-1l-1-20-1-45v-46c0-8-3-15 0-23"/><path fill="#84172f" d="M165 477c6 2 11 1 17 1 13 0 10 4 10 12 0 13-2 9-12 11-7-1-18 1-24-1-4-2-4-17-2-20 3-3 6-2 10-3z"/><path fill="#fdfdfd" d="M156 480h34v19a168 168 0 0 0-34 0z"/><path fill="#84172f" d="m434 482 15 2c5 0 15-3 18-2 2 3 1 14 0 18l-3 2c-3 1-28 0-31-2-3-3-2-15 1-18"/><path fill="#fdfdfd" d="M434 483c20 6 13 3 31 1h1v15a730 730 0 0 0-33 0z"/><path fill="#84172f" d="M917 431c2 2 2 19 2 22v38l-2 106-121-1-1-20 1-114c35-2 65-9 97-23 7-4 16-6 24-8"/><path fill="#a21031" d="M914 434h1c2 2 2 52 1 59-1 14 3 91-2 100-4 2-16 2-20 2h-67c-6 0-24 1-28-2l-1-5v-75c0-8-1-44 1-48 6-4 15-1 23-2l25-6 11-2c7 0 32-13 42-15 3-1 5-4 9-5l5-1M644 434l1 1v162H523c-2-2 0-124 0-134a346 346 0 0 0 121-29"/><path fill="#84172f" d="m658 427 6 4c15 9 30 11 46 15 24 5 48 13 72 15l-1 25c0 9 1 19-2 29-6 26-25 44-47 58-19 11-44 22-65 29 31-39 24-51 3-93-8-16-13-32-12-50v-32"/><path fill="#a21031" d="m665 436 6 3 10 1 3 2 22 5c8 1 15 4 22 6l28 6c4 1 17 3 20 5v46l-3 18c-6 15-29 38-44 44v-1h-5a29 29 0 0 0-2 3h-1l-1 1c-6 2-9 8-12 9-9 3-21 10-30 12h-1c-3-2 5-9 6-12 4-8 8-21 8-29v-1c0-5-14-37-17-43l-6-10c-3-10-13-47-6-54l1 1c2-2-1-4 3-8l-1-4"/><path fill="#1e598e" d="m522 381 123-1v48l-19 7-5 2c-24 12-72 21-98 21v-31z"/><path fill="#285475" d="m522 381 123-1v48l-19 7c2-3 12-5 15-9 4-4 0-12 1-18 1-7 2-15 1-22a24 24 0 0 0 0-3l-6-1-40 1h-72c-1 3-1 70 1 72 12 2 51-5 64-9 6-1 28-10 31-9-24 12-72 21-98 21v-31z"/><path fill="#1e598e" d="m796 381 121-1 1 45-15 4-23 10-12 4c-24 10-46 12-71 13l-1-75"/><path fill="#285475" d="m796 381 121-1 1 45-15 4-23 10 1-1c2-4 35-14 35-15v-40c-2-2-14 0-17 0h-96l-4 1c-2 3 1 50 0 57v12c3 3 31-1 37-2 7 0 26-8 32-8-24 10-46 12-71 13l-1-75"/><path fill="#1e598e" d="M685 383c23-8 57-7 78 3 23 11 13 27-7 33-27 8-54 8-80-3l-9-7-4-6c-2-11 14-18 22-20"/><path fill="#285475" d="M685 383c23-8 57-7 78 3 23 11 13 27-7 33-27 8-54 8-80-3l-9-7c2 0 8 4 10 6 12 5 25 8 39 8 18 0 35-1 52-11 12-7 5-23-7-25-5 0-8-3-13-4-15-5-32-4-49-2-4 0-9 3-14 2M440 378c17-2 44 2 58 12 6 4 10 12 4 19-11 11-30 14-45 15-17 2-44-2-59-12-6-5-8-13-3-19 11-11 31-14 45-15"/><path fill="#1e598e" d="M441 379c12 0 30 1 41 6l2 2 7 1v1l-3 1v1l7 1c2 2 8 4 8 7 1 3-2 5-3 7-2 5-1 4-6 7a89 89 0 0 1-35 9c-12 2-35 0-47-5l-5-7h-4c-6 0-7-3-9-8 0-11 12-14 21-18 8-3 18-3 26-5"/><path fill="#285475" d="M154 388c2-7 9-38 16-40 5 2 5 9 6 13 4 24-1 45 30 49 9-26 12-12 29-23 3-4 4-11 9-11l12 9a423 423 0 0 1 6-5c16-12 55-32 76-29 12 1 9 16 7 25 3 0 6 0 8 2l1 6c-4 15-26 37-39 46 9-12 34-33 34-49-2-4-8-1-11 1 3-6 8-16 2-22-2-2-9-2-11-2-12-1-22 4-32 9l-24 15c-18 13-38 32-61 36-8 1-25-3-31-9-7-5-9-13-10-22-2-5 0-8-4-14l-2 12c-1 3-1 9-3 11-5 2-24 3-32 4l1 1c13 3 32 11 42 21 5 5 9 10 15 14 6 5 13 6 19 10l2 3c-2 2-8-1-10-2-14-5-22-15-33-24a139 139 0 0 0-17-10c-12-7-21-10-35-10 6-17 26-15 40-15"/><path fill="#1e598e" d="M160 374c-2-3 3-8 4-11 0-5 2-10 6-12 2 1 5 7 4 9-2 7 2 12 3 19 1 12 1 22 14 28 5 3 14 3 18 6l-2 3c-24 0-34-13-35-36 0-5 0-13-5-16l-1 1c-5 7-1 19-4 26l-2 5c-7 1-25 0-30 3v1l1 1-2 1c-3 0-8 1-11-1-3-7 17-10 21-11 5 0 11 1 15-1 3-1 4-11 6-15"/><path fill="#d9f6fb" d="M165 385c-1-8 0-13 2-21 3 9 4 14 4 23-2-5 0-8-4-14l-2 12"/><path fill="#285475" d="m209 413 3 1 1 1c-2 2-4 2-6 1l2-3"/><path fill="#fdfdfd" d="m244 381 10 8a93 93 0 0 1-34 21c-3 1-8 3-10 0 2-18 16-12 27-20 3-2 5-6 7-9"/><path fill="#1e598e" d="M323 354c6 0 12-3 18 0v3l-16-2z"/><path fill="#285475" d="M325 355c-2 1-5 2-6 0l4-1z"/><path fill="#1e598e" d="M742 442c19-4 24-5 40-16a1224 1224 0 0 1 0 31c-23-2-38-7-60-13l17-1z"/><path fill="#285475" d="M742 442c19-4 24-5 40-16a1224 1224 0 0 1 0 31c-23-2-38-7-60-13l17-1-1 1-3 1c4 4 39 11 44 8 2-4 2-18 1-23l-10 7h2c-4 3-24 5-29 6l-1-1M509 428c2 2 1 26 1 30-12-1-30-6-42-10l-14-4c22-2 37-4 55-16"/><path fill="#1e598e" d="m507 432 1 2c0 5 1 15-1 20-4 3-31-4-35-7l-3-2-1-1 22-4 11-1h-1l-5-2 12-5"/><path fill="#285475" d="M278 420h2l-3 8c-3 1-11 5-8 10 9 3 13-13 16-13v3c0 4-1 6-3 9-3 4-13 6-16 2-6-7 9-17 12-19M287 385h1v8c0 7 2 12 4 17 3 9 16 13 17 15l-1 1c-6-2-11-5-15-9-6-6-13-26-6-32M312 374c8 3 7 14 0 18-8-2-7-13 0-18"/><path fill="#d9f6fb" d="M311 378c5 2 3 7 2 11l-2-1c-3-2-2-8 0-10"/></svg>